<?xml version="1.0" encoding="UTF-8"?>
<!DOCTYPE svg PUBLIC "-//W3C//DTD SVG 1.1//EN" "http://www.w3.org/Graphics/SVG/1.1/DTD/svg11.dtd">
<svg xmlns="http://www.w3.org/2000/svg" xmlns:xlink="http://www.w3.org/1999/xlink" version="1.1" width="102px" height="112px" viewBox="-0.5 -0.5 102 112"><defs/><g><rect x="0.5" y="1" width="30" height="60" rx="2" ry="2" fill="#cccccc" stroke="#6881b3" stroke-width="2" pointer-events="all"/><path d="M 0.5 11 L 30.5 11 M 0.5 31 L 30.5 31" fill="none" stroke="#6881b3" stroke-width="2" stroke-linejoin="round" stroke-miterlimit="10" pointer-events="all"/><rect x="20.5" y="6" width="80" height="45" fill="#cccccc" stroke="#6881b3" stroke-width="2" pointer-events="all"/><rect x="50.5" y="51" width="20" height="10" fill="#cccccc" stroke="#6881b3" stroke-width="2" pointer-events="all"/><path d="M 35.5 60 L 85.5 60 L 95.5 71 L 25.5 71 Z" fill="#cccccc" stroke="#6881b3" stroke-width="2" stroke-linejoin="round" stroke-miterlimit="10" pointer-events="all"/><path d="M 49.5 68.5 L 67.5 68.5 M 36.5 65.5 L 75.5 65.5 M 38.5 62.5 L 74.5 62.5 M 77.5 62.5 L 84.5 62.5 M 79.5 65.5 L 86.5 65.5 M 81.5 68.5 L 88.5 68.5" fill="none" stroke="#6881b3" stroke-width="2" stroke-linejoin="round" stroke-miterlimit="10" pointer-events="all"/><rect x="23.5" y="9" width="73" height="39" fill="#ffffff" stroke="none" pointer-events="all"/><ellipse cx="5.5" cy="36" rx="2" ry="2" fill="#ffffff" stroke="none" pointer-events="all"/><path d="M 60.25 11 C 64.13 11 67.85 12.58 70.59 15.39 C 73.33 18.21 74.87 22.02 74.87 26 C 73.63 30.92 73.63 36.08 74.87 41 C 65.5 44.89 55.01 44.89 45.64 41 C 46.88 36.08 46.88 30.92 45.64 26 C 45.64 22.02 47.18 18.21 49.92 15.39 C 52.66 12.58 56.38 11 60.25 11 Z M 70 46 C 72.58 46 75.06 47.05 76.89 48.93 C 78.72 50.8 79.74 53.35 79.74 56 L 79.74 71 C 80.26 75.04 78.33 79 74.87 81 L 79.74 91 L 70 91 L 70 106 C 70 107.33 69.49 108.6 68.57 109.54 C 67.66 110.47 66.42 111 65.13 111 L 55.38 111 C 54.09 111 52.85 110.47 51.94 109.54 C 51.02 108.6 50.51 107.33 50.51 106 L 50.51 91 L 40.77 91 L 45.64 81 C 42.18 79 40.25 75.04 40.77 71 L 40.77 56 C 40.77 53.35 41.79 50.8 43.62 48.93 C 45.45 47.05 47.93 46 50.51 46 L 52.46 46 C 52.46 50.42 55.95 54 60.25 54 C 64.56 54 68.05 50.42 68.05 46 Z" fill="#cccccc" stroke="#6881b3" stroke-width="1.95" stroke-miterlimit="10" pointer-events="all"/></g></svg>