<?xml version="1.0" encoding="utf-8" standalone="no"?>
<!DOCTYPE svg PUBLIC "-//W3C//DTD SVG 1.1//EN"
  "http://www.w3.org/Graphics/SVG/1.1/DTD/svg11.dtd">
<!-- Created with matplotlib (http://matplotlib.org/) -->
<svg height="288pt" version="1.1" viewBox="0 0 432 288" width="432pt" xmlns="http://www.w3.org/2000/svg" xmlns:xlink="http://www.w3.org/1999/xlink">
 <defs>
  <style type="text/css">
*{stroke-linecap:butt;stroke-linejoin:round;}
  </style>
 </defs>
 <g id="figure_1">
  <g id="patch_1">
   <path d="M 0 288 
L 432 288 
L 432 0 
L 0 0 
z
" style="fill:#ffffff;"/>
  </g>
  <g id="axes_1">
   <g id="patch_2">
    <path d="M 54 252 
L 388.8 252 
L 388.8 34.56 
L 54 34.56 
z
" style="fill:#ffffff;"/>
   </g>
   <g id="PathCollection_1">
    <defs>
     <path d="M 0 3 
L 0 -3 
" id="m43ee377913" style="stroke:#ffa500;stroke-width:1.5;"/>
    </defs>
    <g clip-path="url(#p165b39e6a7)">
     <use style="fill:#ffa500;stroke:#ffa500;stroke-width:1.5;" x="285.039842" xlink:href="#m43ee377913" y="70.8"/>
     <use style="fill:#ffa500;stroke:#ffa500;stroke-width:1.5;" x="338.23747" xlink:href="#m43ee377913" y="70.8"/>
     <use style="fill:#ffa500;stroke:#ffa500;stroke-width:1.5;" x="309.300302" xlink:href="#m43ee377913" y="70.8"/>
     <use style="fill:#ffa500;stroke:#ffa500;stroke-width:1.5;" x="277.094312" xlink:href="#m43ee377913" y="70.8"/>
     <use style="fill:#ffa500;stroke:#ffa500;stroke-width:1.5;" x="287.669841" xlink:href="#m43ee377913" y="70.8"/>
     <use style="fill:#ffa500;stroke:#ffa500;stroke-width:1.5;" x="303.548503" xlink:href="#m43ee377913" y="70.8"/>
     <use style="fill:#ffa500;stroke:#ffa500;stroke-width:1.5;" x="339.09618" xlink:href="#m43ee377913" y="70.8"/>
     <use style="fill:#ffa500;stroke:#ffa500;stroke-width:1.5;" x="360.884439" xlink:href="#m43ee377913" y="70.8"/>
     <use style="fill:#ffa500;stroke:#ffa500;stroke-width:1.5;" x="273.962067" xlink:href="#m43ee377913" y="70.8"/>
     <use style="fill:#ffa500;stroke:#ffa500;stroke-width:1.5;" x="248.464672" xlink:href="#m43ee377913" y="70.8"/>
     <use style="fill:#ffa500;stroke:#ffa500;stroke-width:1.5;" x="354.532255" xlink:href="#m43ee377913" y="70.8"/>
     <use style="fill:#ffa500;stroke:#ffa500;stroke-width:1.5;" x="329.533174" xlink:href="#m43ee377913" y="70.8"/>
     <use style="fill:#ffa500;stroke:#ffa500;stroke-width:1.5;" x="327.353718" xlink:href="#m43ee377913" y="70.8"/>
     <use style="fill:#ffa500;stroke:#ffa500;stroke-width:1.5;" x="340.397251" xlink:href="#m43ee377913" y="70.8"/>
     <use style="fill:#ffa500;stroke:#ffa500;stroke-width:1.5;" x="321.814183" xlink:href="#m43ee377913" y="70.8"/>
     <use style="fill:#ffa500;stroke:#ffa500;stroke-width:1.5;" x="222.32598" xlink:href="#m43ee377913" y="70.8"/>
     <use style="fill:#ffa500;stroke:#ffa500;stroke-width:1.5;" x="273.683712" xlink:href="#m43ee377913" y="70.8"/>
     <use style="fill:#ffa500;stroke:#ffa500;stroke-width:1.5;" x="262.935441" xlink:href="#m43ee377913" y="70.8"/>
     <use style="fill:#ffa500;stroke:#ffa500;stroke-width:1.5;" x="338.70054" xlink:href="#m43ee377913" y="70.8"/>
     <use style="fill:#ffa500;stroke:#ffa500;stroke-width:1.5;" x="257.910811" xlink:href="#m43ee377913" y="70.8"/>
     <use style="fill:#ffa500;stroke:#ffa500;stroke-width:1.5;" x="154.049077" xlink:href="#m43ee377913" y="215.76"/>
     <use style="fill:#ffa500;stroke:#ffa500;stroke-width:1.5;" x="185.253518" xlink:href="#m43ee377913" y="215.76"/>
     <use style="fill:#ffa500;stroke:#ffa500;stroke-width:1.5;" x="154.291487" xlink:href="#m43ee377913" y="215.76"/>
     <use style="fill:#ffa500;stroke:#ffa500;stroke-width:1.5;" x="108.570481" xlink:href="#m43ee377913" y="215.76"/>
     <use style="fill:#ffa500;stroke:#ffa500;stroke-width:1.5;" x="134.266406" xlink:href="#m43ee377913" y="215.76"/>
     <use style="fill:#ffa500;stroke:#ffa500;stroke-width:1.5;" x="108.131257" xlink:href="#m43ee377913" y="215.76"/>
     <use style="fill:#ffa500;stroke:#ffa500;stroke-width:1.5;" x="183.947646" xlink:href="#m43ee377913" y="215.76"/>
     <use style="fill:#ffa500;stroke:#ffa500;stroke-width:1.5;" x="116.87542" xlink:href="#m43ee377913" y="215.76"/>
     <use style="fill:#ffa500;stroke:#ffa500;stroke-width:1.5;" x="188.109265" xlink:href="#m43ee377913" y="215.76"/>
     <use style="fill:#ffa500;stroke:#ffa500;stroke-width:1.5;" x="92.209375" xlink:href="#m43ee377913" y="215.76"/>
     <use style="fill:#ffa500;stroke:#ffa500;stroke-width:1.5;" x="100.22495" xlink:href="#m43ee377913" y="215.76"/>
     <use style="fill:#ffa500;stroke:#ffa500;stroke-width:1.5;" x="211.900204" xlink:href="#m43ee377913" y="215.76"/>
     <use style="fill:#ffa500;stroke:#ffa500;stroke-width:1.5;" x="70.454549" xlink:href="#m43ee377913" y="215.76"/>
     <use style="fill:#ffa500;stroke:#ffa500;stroke-width:1.5;" x="108.909734" xlink:href="#m43ee377913" y="215.76"/>
     <use style="fill:#ffa500;stroke:#ffa500;stroke-width:1.5;" x="159.190803" xlink:href="#m43ee377913" y="215.76"/>
     <use style="fill:#ffa500;stroke:#ffa500;stroke-width:1.5;" x="101.110033" xlink:href="#m43ee377913" y="215.76"/>
     <use style="fill:#ffa500;stroke:#ffa500;stroke-width:1.5;" x="118.744275" xlink:href="#m43ee377913" y="215.76"/>
     <use style="fill:#ffa500;stroke:#ffa500;stroke-width:1.5;" x="214.154969" xlink:href="#m43ee377913" y="215.76"/>
     <use style="fill:#ffa500;stroke:#ffa500;stroke-width:1.5;" x="78.689597" xlink:href="#m43ee377913" y="215.76"/>
     <use style="fill:#ffa500;stroke:#ffa500;stroke-width:1.5;" x="84.960876" xlink:href="#m43ee377913" y="215.76"/>
    </g>
   </g>
   <g id="matplotlib.axis_1">
    <g id="xtick_1">
     <g id="line2d_1">
      <defs>
       <path d="M 0 0 
L 0 3.5 
" id="m6940fa8bdc" style="stroke:#333337;stroke-width:0.8;"/>
      </defs>
      <g>
       <use style="fill:#333337;stroke:#333337;stroke-width:0.8;" x="69.218182" xlink:href="#m6940fa8bdc" y="252"/>
      </g>
     </g>
     <g id="text_1">
      <!-- 0 -->
      <defs>
       <path d="M 31.78125 66.40625 
Q 24.171875 66.40625 20.328125 58.90625 
Q 16.5 51.421875 16.5 36.375 
Q 16.5 21.390625 20.328125 13.890625 
Q 24.171875 6.390625 31.78125 6.390625 
Q 39.453125 6.390625 43.28125 13.890625 
Q 47.125 21.390625 47.125 36.375 
Q 47.125 51.421875 43.28125 58.90625 
Q 39.453125 66.40625 31.78125 66.40625 
z
M 31.78125 74.21875 
Q 44.046875 74.21875 50.515625 64.515625 
Q 56.984375 54.828125 56.984375 36.375 
Q 56.984375 17.96875 50.515625 8.265625 
Q 44.046875 -1.421875 31.78125 -1.421875 
Q 19.53125 -1.421875 13.0625 8.265625 
Q 6.59375 17.96875 6.59375 36.375 
Q 6.59375 54.828125 13.0625 64.515625 
Q 19.53125 74.21875 31.78125 74.21875 
z
" id="DejaVuSans-30"/>
      </defs>
      <g style="fill:#333337;" transform="translate(66.036932 266.598437)scale(0.1 -0.1)">
       <use xlink:href="#DejaVuSans-30"/>
      </g>
     </g>
    </g>
    <g id="xtick_2">
     <g id="line2d_2">
      <g>
       <use style="fill:#333337;stroke:#333337;stroke-width:0.8;" x="130.090909" xlink:href="#m6940fa8bdc" y="252"/>
      </g>
     </g>
     <g id="text_2">
      <!-- 2 -->
      <defs>
       <path d="M 19.1875 8.296875 
L 53.609375 8.296875 
L 53.609375 0 
L 7.328125 0 
L 7.328125 8.296875 
Q 12.9375 14.109375 22.625 23.890625 
Q 32.328125 33.6875 34.8125 36.53125 
Q 39.546875 41.84375 41.421875 45.53125 
Q 43.3125 49.21875 43.3125 52.78125 
Q 43.3125 58.59375 39.234375 62.25 
Q 35.15625 65.921875 28.609375 65.921875 
Q 23.96875 65.921875 18.8125 64.3125 
Q 13.671875 62.703125 7.8125 59.421875 
L 7.8125 69.390625 
Q 13.765625 71.78125 18.9375 73 
Q 24.125 74.21875 28.421875 74.21875 
Q 39.75 74.21875 46.484375 68.546875 
Q 53.21875 62.890625 53.21875 53.421875 
Q 53.21875 48.921875 51.53125 44.890625 
Q 49.859375 40.875 45.40625 35.40625 
Q 44.1875 33.984375 37.640625 27.21875 
Q 31.109375 20.453125 19.1875 8.296875 
z
" id="DejaVuSans-32"/>
      </defs>
      <g style="fill:#333337;" transform="translate(126.909659 266.598437)scale(0.1 -0.1)">
       <use xlink:href="#DejaVuSans-32"/>
      </g>
     </g>
    </g>
    <g id="xtick_3">
     <g id="line2d_3">
      <g>
       <use style="fill:#333337;stroke:#333337;stroke-width:0.8;" x="190.963636" xlink:href="#m6940fa8bdc" y="252"/>
      </g>
     </g>
     <g id="text_3">
      <!-- 4 -->
      <defs>
       <path d="M 37.796875 64.3125 
L 12.890625 25.390625 
L 37.796875 25.390625 
z
M 35.203125 72.90625 
L 47.609375 72.90625 
L 47.609375 25.390625 
L 58.015625 25.390625 
L 58.015625 17.1875 
L 47.609375 17.1875 
L 47.609375 0 
L 37.796875 0 
L 37.796875 17.1875 
L 4.890625 17.1875 
L 4.890625 26.703125 
z
" id="DejaVuSans-34"/>
      </defs>
      <g style="fill:#333337;" transform="translate(187.782386 266.598437)scale(0.1 -0.1)">
       <use xlink:href="#DejaVuSans-34"/>
      </g>
     </g>
    </g>
    <g id="xtick_4">
     <g id="line2d_4">
      <g>
       <use style="fill:#333337;stroke:#333337;stroke-width:0.8;" x="251.836364" xlink:href="#m6940fa8bdc" y="252"/>
      </g>
     </g>
     <g id="text_4">
      <!-- 6 -->
      <defs>
       <path d="M 33.015625 40.375 
Q 26.375 40.375 22.484375 35.828125 
Q 18.609375 31.296875 18.609375 23.390625 
Q 18.609375 15.53125 22.484375 10.953125 
Q 26.375 6.390625 33.015625 6.390625 
Q 39.65625 6.390625 43.53125 10.953125 
Q 47.40625 15.53125 47.40625 23.390625 
Q 47.40625 31.296875 43.53125 35.828125 
Q 39.65625 40.375 33.015625 40.375 
z
M 52.59375 71.296875 
L 52.59375 62.3125 
Q 48.875 64.0625 45.09375 64.984375 
Q 41.3125 65.921875 37.59375 65.921875 
Q 27.828125 65.921875 22.671875 59.328125 
Q 17.53125 52.734375 16.796875 39.40625 
Q 19.671875 43.65625 24.015625 45.921875 
Q 28.375 48.1875 33.59375 48.1875 
Q 44.578125 48.1875 50.953125 41.515625 
Q 57.328125 34.859375 57.328125 23.390625 
Q 57.328125 12.15625 50.6875 5.359375 
Q 44.046875 -1.421875 33.015625 -1.421875 
Q 20.359375 -1.421875 13.671875 8.265625 
Q 6.984375 17.96875 6.984375 36.375 
Q 6.984375 53.65625 15.1875 63.9375 
Q 23.390625 74.21875 37.203125 74.21875 
Q 40.921875 74.21875 44.703125 73.484375 
Q 48.484375 72.75 52.59375 71.296875 
z
" id="DejaVuSans-36"/>
      </defs>
      <g style="fill:#333337;" transform="translate(248.655114 266.598437)scale(0.1 -0.1)">
       <use xlink:href="#DejaVuSans-36"/>
      </g>
     </g>
    </g>
    <g id="xtick_5">
     <g id="line2d_5">
      <g>
       <use style="fill:#333337;stroke:#333337;stroke-width:0.8;" x="312.709091" xlink:href="#m6940fa8bdc" y="252"/>
      </g>
     </g>
     <g id="text_5">
      <!-- 8 -->
      <defs>
       <path d="M 31.78125 34.625 
Q 24.75 34.625 20.71875 30.859375 
Q 16.703125 27.09375 16.703125 20.515625 
Q 16.703125 13.921875 20.71875 10.15625 
Q 24.75 6.390625 31.78125 6.390625 
Q 38.8125 6.390625 42.859375 10.171875 
Q 46.921875 13.96875 46.921875 20.515625 
Q 46.921875 27.09375 42.890625 30.859375 
Q 38.875 34.625 31.78125 34.625 
z
M 21.921875 38.8125 
Q 15.578125 40.375 12.03125 44.71875 
Q 8.5 49.078125 8.5 55.328125 
Q 8.5 64.0625 14.71875 69.140625 
Q 20.953125 74.21875 31.78125 74.21875 
Q 42.671875 74.21875 48.875 69.140625 
Q 55.078125 64.0625 55.078125 55.328125 
Q 55.078125 49.078125 51.53125 44.71875 
Q 48 40.375 41.703125 38.8125 
Q 48.828125 37.15625 52.796875 32.3125 
Q 56.78125 27.484375 56.78125 20.515625 
Q 56.78125 9.90625 50.3125 4.234375 
Q 43.84375 -1.421875 31.78125 -1.421875 
Q 19.734375 -1.421875 13.25 4.234375 
Q 6.78125 9.90625 6.78125 20.515625 
Q 6.78125 27.484375 10.78125 32.3125 
Q 14.796875 37.15625 21.921875 38.8125 
z
M 18.3125 54.390625 
Q 18.3125 48.734375 21.84375 45.5625 
Q 25.390625 42.390625 31.78125 42.390625 
Q 38.140625 42.390625 41.71875 45.5625 
Q 45.3125 48.734375 45.3125 54.390625 
Q 45.3125 60.0625 41.71875 63.234375 
Q 38.140625 66.40625 31.78125 66.40625 
Q 25.390625 66.40625 21.84375 63.234375 
Q 18.3125 60.0625 18.3125 54.390625 
z
" id="DejaVuSans-38"/>
      </defs>
      <g style="fill:#333337;" transform="translate(309.527841 266.598437)scale(0.1 -0.1)">
       <use xlink:href="#DejaVuSans-38"/>
      </g>
     </g>
    </g>
    <g id="xtick_6">
     <g id="line2d_6">
      <g>
       <use style="fill:#333337;stroke:#333337;stroke-width:0.8;" x="373.581818" xlink:href="#m6940fa8bdc" y="252"/>
      </g>
     </g>
     <g id="text_6">
      <!-- 10 -->
      <defs>
       <path d="M 12.40625 8.296875 
L 28.515625 8.296875 
L 28.515625 63.921875 
L 10.984375 60.40625 
L 10.984375 69.390625 
L 28.421875 72.90625 
L 38.28125 72.90625 
L 38.28125 8.296875 
L 54.390625 8.296875 
L 54.390625 0 
L 12.40625 0 
z
" id="DejaVuSans-31"/>
      </defs>
      <g style="fill:#333337;" transform="translate(367.219318 266.598437)scale(0.1 -0.1)">
       <use xlink:href="#DejaVuSans-31"/>
       <use x="63.623047" xlink:href="#DejaVuSans-30"/>
      </g>
     </g>
    </g>
    <g id="text_7">
     <!-- x -->
     <defs>
      <path d="M 0.875 3.375 
Q 1.078125 3.375 1.34375 3.34375 
Q 1.609375 3.328125 2.09375 3.328125 
Q 6.6875 3.328125 18.609375 18.453125 
Q 21.296875 21.921875 22.796875 23.78125 
L 11.8125 38.921875 
Q 9.28125 42.328125 7.765625 43.5 
Q 6.25 44.671875 4.59375 44.671875 
Q 4.5 44.671875 4.21875 44.625 
Q 3.953125 44.578125 3.8125 44.578125 
L 3.8125 47.90625 
Q 4.4375 47.859375 5.671875 47.796875 
Q 11.421875 47.515625 13.625 47.515625 
Q 15.4375 47.515625 17.84375 47.609375 
Q 20.265625 47.703125 23.09375 47.90625 
L 23.09375 44.578125 
L 22.703125 44.578125 
Q 21.046875 44.578125 20.21875 44.015625 
Q 19.390625 43.453125 19.390625 42.28125 
Q 19.390625 40.578125 26.953125 30.5625 
L 27.640625 29.734375 
Q 32.421875 36.03125 34.25 38.8125 
Q 36.078125 41.609375 36.078125 42.578125 
Q 36.078125 43.65625 35.390625 44.0625 
Q 34.71875 44.484375 32.515625 44.578125 
L 32.515625 47.90625 
Q 34.8125 47.703125 36.859375 47.609375 
Q 38.921875 47.515625 40.578125 47.515625 
Q 42.671875 47.515625 44.765625 47.609375 
Q 46.875 47.703125 49.125 47.90625 
L 49.078125 44.625 
Q 48.96875 44.625 48.765625 44.640625 
Q 48.578125 44.671875 48.296875 44.671875 
Q 44.671875 44.671875 35.109375 32.625 
Q 31.9375 28.65625 30.078125 26.421875 
L 43.21875 8.890625 
Q 45.84375 5.328125 47.28125 4.375 
Q 48.734375 3.421875 50.59375 3.421875 
L 51.125 3.421875 
L 51.125 0 
Q 50.25 0.046875 48.734375 0.09375 
Q 43.21875 0.390625 41.21875 0.390625 
Q 39.796875 0.390625 35.359375 0.203125 
Q 32.859375 0.046875 31.546875 0 
L 31.5 3.421875 
L 32.078125 3.421875 
Q 33.9375 3.421875 34.765625 3.90625 
Q 35.59375 4.390625 35.59375 5.515625 
Q 35.59375 6.6875 30.28125 13.8125 
Q 27.25 17.875 25.390625 20.40625 
Q 20.21875 13.71875 17.84375 10.125 
Q 15.484375 6.546875 15.484375 5.328125 
Q 15.484375 4.296875 16.15625 3.859375 
Q 16.84375 3.421875 18.40625 3.421875 
L 19 3.421875 
L 19 0 
Q 16.359375 0.203125 13.984375 0.296875 
Q 11.625 0.390625 9.71875 0.390625 
Q 8.15625 0.390625 5.875 0.296875 
Q 3.609375 0.203125 0.875 0 
z
" id="IowanOldStyleW01-Roman-78"/>
     </defs>
     <g style="fill:#333337;" transform="translate(217.691094 283.245938)scale(0.14 -0.14)">
      <use xlink:href="#IowanOldStyleW01-Roman-78"/>
     </g>
    </g>
   </g>
   <g id="matplotlib.axis_2">
    <g id="ytick_1">
     <g id="line2d_7">
      <defs>
       <path d="M 0 0 
L -3.5 0 
" id="m12465a14ad" style="stroke:#333337;stroke-width:0.8;"/>
      </defs>
      <g>
       <use style="fill:#333337;stroke:#333337;stroke-width:0.8;" x="54" xlink:href="#m12465a14ad" y="215.76"/>
      </g>
     </g>
     <g id="text_8">
      <!-- 0.0 -->
      <defs>
       <path d="M 10.6875 12.40625 
L 21 12.40625 
L 21 0 
L 10.6875 0 
z
" id="DejaVuSans-2e"/>
      </defs>
      <g style="fill:#333337;" transform="translate(31.096875 219.559219)scale(0.1 -0.1)">
       <use xlink:href="#DejaVuSans-30"/>
       <use x="63.623047" xlink:href="#DejaVuSans-2e"/>
       <use x="95.410156" xlink:href="#DejaVuSans-30"/>
      </g>
     </g>
    </g>
    <g id="ytick_2">
     <g id="line2d_8">
      <g>
       <use style="fill:#333337;stroke:#333337;stroke-width:0.8;" x="54" xlink:href="#m12465a14ad" y="143.28"/>
      </g>
     </g>
     <g id="text_9">
      <!-- 0.5 -->
      <defs>
       <path d="M 10.796875 72.90625 
L 49.515625 72.90625 
L 49.515625 64.59375 
L 19.828125 64.59375 
L 19.828125 46.734375 
Q 21.96875 47.46875 24.109375 47.828125 
Q 26.265625 48.1875 28.421875 48.1875 
Q 40.625 48.1875 47.75 41.5 
Q 54.890625 34.8125 54.890625 23.390625 
Q 54.890625 11.625 47.5625 5.09375 
Q 40.234375 -1.421875 26.90625 -1.421875 
Q 22.3125 -1.421875 17.546875 -0.640625 
Q 12.796875 0.140625 7.71875 1.703125 
L 7.71875 11.625 
Q 12.109375 9.234375 16.796875 8.0625 
Q 21.484375 6.890625 26.703125 6.890625 
Q 35.15625 6.890625 40.078125 11.328125 
Q 45.015625 15.765625 45.015625 23.390625 
Q 45.015625 31 40.078125 35.4375 
Q 35.15625 39.890625 26.703125 39.890625 
Q 22.75 39.890625 18.8125 39.015625 
Q 14.890625 38.140625 10.796875 36.28125 
z
" id="DejaVuSans-35"/>
      </defs>
      <g style="fill:#333337;" transform="translate(31.096875 147.079219)scale(0.1 -0.1)">
       <use xlink:href="#DejaVuSans-30"/>
       <use x="63.623047" xlink:href="#DejaVuSans-2e"/>
       <use x="95.410156" xlink:href="#DejaVuSans-35"/>
      </g>
     </g>
    </g>
    <g id="ytick_3">
     <g id="line2d_9">
      <g>
       <use style="fill:#333337;stroke:#333337;stroke-width:0.8;" x="54" xlink:href="#m12465a14ad" y="70.8"/>
      </g>
     </g>
     <g id="text_10">
      <!-- 1.0 -->
      <g style="fill:#333337;" transform="translate(31.096875 74.599219)scale(0.1 -0.1)">
       <use xlink:href="#DejaVuSans-31"/>
       <use x="63.623047" xlink:href="#DejaVuSans-2e"/>
       <use x="95.410156" xlink:href="#DejaVuSans-30"/>
      </g>
     </g>
    </g>
    <g id="text_11">
     <!-- y -->
     <defs>
      <path d="M 0 47.859375 
Q 3.65625 47.609375 5.859375 47.5 
Q 8.0625 47.40625 9.625 47.40625 
Q 11.078125 47.40625 13.34375 47.5 
Q 15.625 47.609375 19.671875 47.90625 
L 19.671875 44.484375 
L 18.40625 44.484375 
Q 15.96875 44.484375 14.984375 43.828125 
Q 14.015625 43.171875 14.015625 41.5 
Q 14.015625 40.234375 18.3125 28.609375 
Q 22.40625 17.578125 25.09375 10.015625 
Q 31.890625 26.125 34.640625 33.25 
Q 37.40625 40.375 37.40625 41.796875 
Q 37.40625 43.21875 36.328125 43.84375 
Q 35.25 44.484375 32.8125 44.484375 
L 32.078125 44.484375 
L 32.078125 47.90625 
Q 34.28125 47.703125 36.40625 47.609375 
Q 38.53125 47.515625 40.484375 47.515625 
Q 42.09375 47.515625 44.1875 47.609375 
Q 46.296875 47.703125 48.6875 47.90625 
L 48.6875 44.484375 
L 48.296875 44.484375 
Q 46.6875 44.484375 45.578125 43.765625 
Q 44.484375 43.0625 43.703125 41.5 
Q 43.609375 41.265625 42.875 39.59375 
Q 37.703125 27.640625 31.78125 14.5 
Q 28.859375 7.859375 24.3125 -2.828125 
Q 14.546875 -25.984375 9.28125 -25.984375 
Q 7.328125 -25.984375 6 -24.703125 
Q 4.6875 -23.4375 4.6875 -21.484375 
Q 4.6875 -18.796875 8.453125 -18.109375 
Q 9.96875 -17.875 10.59375 -17.578125 
Q 13.328125 -16.5 18.453125 -5.171875 
Q 19.875 -2 20.703125 -0.203125 
Q 17.328125 8.5 12.40625 22.125 
Q 4.25 44.578125 0.78125 44.578125 
Q 0.484375 44.578125 0.3125 44.546875 
Q 0.140625 44.53125 0 44.53125 
z
" id="IowanOldStyleW01-Roman-79"/>
     </defs>
     <g style="fill:#333337;" transform="translate(23.459062 146.680469)rotate(-90)scale(0.14 -0.14)">
      <use xlink:href="#IowanOldStyleW01-Roman-79"/>
     </g>
    </g>
   </g>
   <g id="line2d_10">
    <path clip-path="url(#p165b39e6a7)" d="M 285.039842 96.789177 
L 338.23747 59.807625 
L 309.300302 79.923962 
L 277.094312 102.312695 
L 287.669841 94.960873 
L 303.548503 83.922456 
L 339.09618 59.210673 
L 360.884439 44.064065 
L 273.962067 104.490147 
L 248.464672 122.215246 
L 354.532255 48.479931 
L 329.533174 65.858616 
L 327.353718 67.373715 
L 340.397251 58.306204 
L 321.814183 71.22465 
L 222.32598 140.386158 
L 273.683712 104.683652 
L 262.935441 112.15556 
L 338.70054 59.485711 
L 257.910811 115.648546 
L 154.049077 187.850416 
L 185.253518 166.157932 
L 154.291487 187.681899 
L 108.570481 219.465906 
L 134.266406 201.602793 
L 108.131257 219.771242 
L 183.947646 167.065739 
L 116.87542 213.692537 
L 188.109265 164.172694 
L 92.209375 230.839704 
L 100.22495 225.267493 
L 211.900204 147.633876 
L 70.454549 245.963071 
L 108.909734 219.230066 
L 159.190803 184.276027 
L 101.110033 224.652207 
L 118.744275 212.393359 
L 214.154969 146.066425 
L 78.689597 240.238288 
L 84.960876 235.878665 
" style="fill:none;stroke:#1f77b4;stroke-linecap:square;stroke-width:1.5;"/>
   </g>
   <g id="line2d_11">
    <path clip-path="url(#p165b39e6a7)" d="M 69.218182 143.28 
L 373.581818 143.28 
" style="fill:none;stroke:#ff7f0e;stroke-dasharray:3.7,1.6;stroke-dashoffset:0;"/>
   </g>
   <g id="patch_3">
    <path d="M 54 252 
L 54 34.56 
" style="fill:none;stroke:#333337;stroke-linecap:square;stroke-linejoin:miter;stroke-width:0.8;"/>
   </g>
   <g id="patch_4">
    <path d="M 388.8 252 
L 388.8 34.56 
" style="fill:none;stroke:#333337;stroke-linecap:square;stroke-linejoin:miter;stroke-width:0.8;"/>
   </g>
   <g id="patch_5">
    <path d="M 54 252 
L 388.8 252 
" style="fill:none;stroke:#333337;stroke-linecap:square;stroke-linejoin:miter;stroke-width:0.8;"/>
   </g>
   <g id="patch_6">
    <path d="M 54 34.56 
L 388.8 34.56 
" style="fill:none;stroke:#333337;stroke-linecap:square;stroke-linejoin:miter;stroke-width:0.8;"/>
   </g>
   <g id="text_12">
    <!-- seen on http://datascientist.space -->
    <defs>
     <path d="M 36.078125 47.3125 
Q 36.078125 44.34375 36.390625 41.3125 
Q 36.71875 38.28125 37.3125 35.203125 
L 33.59375 34.625 
Q 33.015625 39.703125 30.375 42.1875 
Q 27.734375 44.671875 23 44.671875 
Q 18.890625 44.671875 16.25 42.453125 
Q 13.625 40.234375 13.625 36.8125 
Q 13.625 31.390625 25.140625 28.21875 
Q 27.15625 27.6875 28.21875 27.390625 
Q 33.984375 25.78125 36.640625 22.796875 
Q 39.3125 19.828125 39.3125 14.984375 
Q 39.3125 7.859375 33.71875 3.21875 
Q 28.125 -1.421875 19.390625 -1.421875 
Q 16.21875 -1.421875 12.890625 -0.734375 
Q 9.578125 -0.046875 6.109375 1.3125 
Q 6.15625 1.8125 6.171875 2.34375 
Q 6.203125 2.875 6.203125 4 
Q 6.203125 6.25 5.9375 8.859375 
Q 5.671875 11.46875 5.125 14.40625 
L 8.796875 15.28125 
Q 9.578125 9.234375 12.59375 6.21875 
Q 15.625 3.21875 21 3.21875 
Q 25.875 3.21875 28.96875 5.578125 
Q 32.078125 7.953125 32.078125 11.71875 
Q 32.078125 17 21.734375 20.125 
Q 20.703125 20.453125 20.21875 20.609375 
Q 12.796875 22.859375 9.78125 26.125 
Q 6.78125 29.390625 6.78125 34.8125 
Q 6.78125 41.0625 11.765625 45.1875 
Q 16.75 49.3125 24.515625 49.3125 
Q 26.90625 49.3125 29.703125 48.828125 
Q 32.515625 48.34375 36.078125 47.3125 
z
" id="IowanOldStyleW01-Roman-73"/>
     <path d="M 45.40625 27.296875 
L 21.578125 27.296875 
Q 18.796875 27.296875 16.453125 27.1875 
Q 14.109375 27.09375 12.109375 26.90625 
L 12.109375 25.09375 
Q 12.109375 15.53125 16.53125 10.296875 
Q 20.953125 5.078125 29 5.078125 
Q 32.5625 5.078125 36.03125 6.265625 
Q 39.5 7.46875 43.40625 10.015625 
L 45.3125 6.890625 
Q 40.28125 2.78125 35.28125 0.671875 
Q 30.28125 -1.421875 25.390625 -1.421875 
Q 15.921875 -1.421875 9.765625 5.34375 
Q 3.609375 12.109375 3.609375 22.703125 
Q 3.609375 33.984375 10.046875 41.640625 
Q 16.5 49.3125 25.78125 49.3125 
Q 34.421875 49.3125 39.546875 43.546875 
Q 44.671875 37.796875 45.40625 27.296875 
z
M 36.375 32.421875 
Q 34.90625 38.421875 31.921875 41.625 
Q 28.953125 44.828125 24.8125 44.828125 
Q 20.125 44.828125 16.765625 41.0625 
Q 13.421875 37.3125 12.40625 30.90625 
Q 22.078125 30.90625 27.609375 31.25 
Q 33.15625 31.59375 36.375 32.421875 
z
" id="IowanOldStyleW01-Roman-65"/>
     <path d="M 18.40625 49.90625 
L 17.828125 41.703125 
Q 23.34375 45.703125 27.421875 47.5 
Q 31.5 49.3125 34.90625 49.3125 
Q 42.09375 49.3125 45.703125 45.265625 
Q 49.3125 41.21875 49.3125 33.109375 
Q 49.3125 33.0625 49.265625 28.8125 
Q 49.21875 24.5625 49.21875 20.3125 
Q 49.21875 18.5 49.171875 15.796875 
Q 49.125 13.09375 49.125 12.109375 
Q 49.125 6.640625 50.09375 4.984375 
Q 51.078125 3.328125 53.8125 3.328125 
Q 53.953125 3.328125 54.359375 3.375 
Q 54.78125 3.421875 54.984375 3.421875 
L 54.984375 0 
Q 50.59375 0.296875 48.34375 0.390625 
Q 46.09375 0.484375 44.578125 0.484375 
Q 42.234375 0.484375 39.5 0.359375 
Q 36.765625 0.25 33.9375 0 
L 33.890625 3.421875 
L 34.625 3.421875 
Q 40.875 3.421875 40.96875 14.84375 
Q 41.015625 15.484375 41.015625 15.828125 
L 41.109375 26.3125 
L 41.109375 28.078125 
Q 41.109375 37.109375 39.015625 40.0625 
Q 36.921875 43.015625 31.78125 43.015625 
Q 28.953125 43.015625 25.515625 41.671875 
Q 22.078125 40.328125 18.21875 37.703125 
Q 18.015625 32.625 17.921875 28.09375 
Q 17.828125 23.578125 17.828125 19.921875 
L 17.828125 13.1875 
Q 17.828125 6.734375 18.78125 5.03125 
Q 19.734375 3.328125 22.515625 3.328125 
Q 22.703125 3.328125 23.109375 3.375 
Q 23.53125 3.421875 23.78125 3.421875 
L 23.78125 0 
Q 19.578125 0.296875 17.15625 0.390625 
Q 14.75 0.484375 13.1875 0.484375 
Q 11.71875 0.484375 9.328125 0.390625 
Q 6.9375 0.296875 2.640625 0 
L 2.59375 3.421875 
L 3.515625 3.421875 
Q 9.625 3.421875 9.671875 15.28125 
Q 9.671875 17.046875 9.71875 18.015625 
L 9.8125 29.984375 
L 9.8125 34.8125 
Q 9.8125 39.59375 9.078125 41.078125 
Q 8.34375 42.578125 6.390625 42.578125 
Q 6 42.578125 5.390625 42.484375 
Q 4.78125 42.390625 4.109375 42.1875 
L 3.515625 45.21875 
Q 7.171875 45.90625 10.859375 47.078125 
Q 14.546875 48.25 18.40625 49.90625 
z
" id="IowanOldStyleW01-Roman-6e"/>
     <path id="IowanOldStyleW01-Roman-20"/>
     <path d="M 26.8125 44.1875 
Q 20.265625 44.1875 16.28125 39.421875 
Q 12.3125 34.671875 12.3125 26.609375 
Q 12.3125 16.3125 16.71875 9.90625 
Q 21.140625 3.515625 28.21875 3.515625 
Q 35.0625 3.515625 39.140625 8.59375 
Q 43.21875 13.671875 43.21875 22.40625 
Q 43.21875 31.984375 38.59375 38.078125 
Q 33.984375 44.1875 26.8125 44.1875 
z
M 28.078125 49.3125 
Q 38.375 49.3125 45.140625 42.40625 
Q 51.90625 35.5 51.90625 25.296875 
Q 51.90625 14.0625 44.765625 6.375 
Q 37.640625 -1.3125 27.203125 -1.3125 
Q 16.75 -1.3125 10.03125 5.71875 
Q 3.328125 12.75 3.328125 23.484375 
Q 3.328125 34.234375 10.625 41.765625 
Q 17.921875 49.3125 28.078125 49.3125 
z
" id="IowanOldStyleW01-Roman-6f"/>
     <path d="M 18.171875 75.484375 
Q 17.96875 67.28125 17.8125 58.734375 
Q 17.671875 50.203125 17.625 41.21875 
Q 23.09375 45.359375 27.390625 47.328125 
Q 31.6875 49.3125 35.203125 49.3125 
Q 42.390625 49.3125 46 45.265625 
Q 49.609375 41.21875 49.609375 33.109375 
Q 49.609375 33.0625 49.5625 28.8125 
Q 49.515625 24.5625 49.515625 20.3125 
Q 49.515625 18.5 49.46875 15.796875 
Q 49.421875 13.09375 49.421875 12.109375 
Q 49.421875 6.640625 50.390625 4.984375 
Q 51.375 3.328125 54.109375 3.328125 
Q 54.25 3.328125 54.65625 3.375 
Q 55.078125 3.421875 55.328125 3.421875 
L 55.328125 0 
Q 50.875 0.296875 48.625 0.390625 
Q 46.390625 0.484375 44.921875 0.484375 
Q 42.578125 0.484375 39.859375 0.359375 
Q 37.15625 0.25 34.234375 0 
L 34.1875 3.421875 
L 34.90625 3.421875 
Q 41.15625 3.421875 41.3125 14.84375 
Q 41.3125 15.484375 41.3125 15.828125 
L 41.40625 26.3125 
L 41.40625 28.328125 
Q 41.40625 37.203125 39.296875 40.109375 
Q 37.203125 43.015625 32.078125 43.015625 
Q 29.296875 43.015625 25.90625 41.640625 
Q 22.515625 40.28125 17.921875 37.3125 
L 17.671875 19.921875 
Q 17.671875 18.453125 17.625 16.15625 
Q 17.578125 13.875 17.578125 12.984375 
Q 17.578125 6.9375 18.546875 5.125 
Q 19.53125 3.328125 22.3125 3.328125 
Q 22.515625 3.328125 22.921875 3.375 
Q 23.34375 3.421875 23.578125 3.421875 
L 23.578125 0 
Q 20.515625 0.25 17.796875 0.359375 
Q 15.09375 0.484375 13.09375 0.484375 
Q 11.1875 0.484375 8.6875 0.390625 
Q 6.203125 0.296875 2.203125 0.046875 
L 2.203125 3.421875 
Q 2.484375 3.421875 3.015625 3.375 
Q 3.5625 3.328125 3.8125 3.328125 
Q 7.171875 3.328125 8.34375 5.109375 
Q 9.515625 6.890625 9.515625 15.484375 
L 9.515625 19.09375 
L 9.71875 55.8125 
L 9.71875 64.203125 
Q 9.71875 66.3125 8.8125 67.359375 
Q 7.90625 68.40625 6.109375 68.40625 
Q 5.421875 68.40625 3.859375 68.109375 
Q 3.46875 68.015625 3.328125 68.015625 
L 2.59375 71.1875 
Q 6.59375 71.96875 10.453125 73.015625 
Q 14.3125 74.078125 18.171875 75.484375 
z
" id="IowanOldStyleW01-Roman-68"/>
     <path d="M 15.375 57.171875 
L 18.609375 56.203125 
Q 18.3125 53.515625 18.140625 51.390625 
Q 17.96875 49.265625 17.921875 47.21875 
L 21.390625 47.21875 
Q 24.171875 47.21875 27.046875 47.28125 
Q 29.9375 47.359375 32.859375 47.515625 
L 31.6875 42.1875 
Q 28.5625 42.4375 25.796875 42.5 
Q 23.046875 42.578125 20.3125 42.578125 
L 18.015625 42.578125 
Q 17.71875 34.1875 17.59375 29.71875 
Q 17.484375 25.25 17.484375 22.3125 
Q 17.484375 11.28125 19 7.9375 
Q 20.515625 4.59375 24.421875 4.59375 
Q 26.03125 4.59375 28 5.265625 
Q 29.984375 5.953125 32.8125 7.515625 
L 34.421875 4.296875 
Q 29.734375 1.46875 25.921875 0.015625 
Q 22.125 -1.421875 19.28125 -1.421875 
Q 14.0625 -1.421875 11.671875 2.171875 
Q 9.28125 5.765625 9.28125 13.71875 
Q 9.28125 15.28125 9.5 24.875 
Q 9.71875 34.46875 9.71875 42.484375 
Q 9.28125 42.484375 8.453125 42.4375 
Q 4.390625 42.28125 2.875 42.28125 
L 2.875 45.796875 
Q 7.671875 46.484375 10.796875 49.34375 
Q 13.921875 52.203125 15.375 57.171875 
z
" id="IowanOldStyleW01-Roman-74"/>
     <path d="M 16.796875 7.078125 
Q 19.734375 5.671875 22.65625 4.890625 
Q 25.59375 4.109375 28.21875 4.109375 
Q 35.453125 4.109375 39.578125 8.859375 
Q 43.703125 13.625 43.703125 22.125 
Q 43.703125 31.296875 39.640625 36.78125 
Q 35.59375 42.28125 29 42.28125 
Q 26.171875 42.28125 23.0625 41.359375 
Q 19.96875 40.4375 17.09375 38.71875 
Q 16.890625 31.59375 16.796875 25.234375 
Q 16.703125 18.890625 16.703125 13.625 
Q 16.703125 12.703125 16.75 10.515625 
Q 16.796875 8.34375 16.796875 7.078125 
z
M 17.484375 50.484375 
L 17.09375 42.671875 
Q 21.53125 45.75 25.359375 47.15625 
Q 29.203125 48.578125 32.90625 48.578125 
Q 40.96875 48.578125 46.390625 42.15625 
Q 51.8125 35.75 51.8125 26.21875 
Q 51.8125 13.8125 44.890625 6.796875 
Q 37.984375 -0.203125 25.78125 -0.203125 
Q 23.53125 -0.203125 21.234375 0.265625 
Q 18.953125 0.734375 16.703125 1.609375 
L 16.703125 -15.828125 
Q 16.703125 -21.578125 25.140625 -21.6875 
L 25.203125 -21.6875 
L 25.203125 -25.203125 
Q 21.96875 -24.953125 18.96875 -24.828125 
Q 15.96875 -24.703125 13.28125 -24.703125 
Q 11.671875 -24.703125 9.078125 -24.796875 
Q 6.5 -24.90625 1.3125 -25.203125 
L 1.3125 -21.6875 
Q 4.5 -21.6875 5.609375 -21.359375 
Q 6.734375 -21.046875 7.328125 -20.21875 
Q 8.59375 -18.015625 8.6875 -0.296875 
Q 8.6875 3.375 8.6875 5.421875 
L 8.796875 16.5 
L 8.796875 30.171875 
L 8.796875 32.625 
Q 8.796875 38.671875 8.078125 40.1875 
Q 7.375 41.703125 5.328125 41.703125 
Q 4.828125 41.703125 4.140625 41.59375 
Q 3.46875 41.5 2.6875 41.3125 
L 2.203125 44.28125 
Q 6.34375 45.453125 10.125 46.984375 
Q 13.921875 48.53125 17.484375 50.484375 
z
" id="IowanOldStyleW01-Roman-70"/>
     <path d="M 12.984375 12.703125 
L 16.890625 9.8125 
Q 18.5 8.59375 19.25 7.59375 
Q 20.015625 6.59375 20.015625 5.71875 
Q 20.015625 4.546875 19.359375 3.5625 
Q 18.703125 2.59375 17.09375 1.421875 
L 13.28125 -1.421875 
L 9.71875 1.421875 
Q 7.953125 2.6875 7.265625 3.65625 
Q 6.59375 4.640625 6.59375 5.71875 
Q 6.59375 6.640625 7.109375 7.4375 
Q 7.625 8.25 9.515625 9.8125 
z
M 12.984375 44.671875 
L 16.890625 41.796875 
Q 18.5 40.578125 19.25 39.59375 
Q 20.015625 38.625 20.015625 37.703125 
Q 20.015625 36.53125 19.359375 35.546875 
Q 18.703125 34.578125 17.09375 33.40625 
L 13.28125 30.609375 
L 9.71875 33.40625 
Q 7.953125 34.671875 7.265625 35.640625 
Q 6.59375 36.625 6.59375 37.703125 
Q 6.59375 38.625 7.109375 39.421875 
Q 7.625 40.234375 9.515625 41.796875 
z
" id="IowanOldStyleW01-Roman-3a"/>
     <path d="M 42.28125 76.125 
L 47.515625 73.6875 
Q 28.375 38.09375 18.71875 19.890625 
Q 9.078125 1.703125 3.515625 -9.28125 
L -1.703125 -6.984375 
Q 12.453125 19.046875 23.359375 39.625 
Q 34.28125 60.203125 42.28125 76.125 
z
" id="IowanOldStyleW01-Roman-2f"/>
     <path d="M 39.015625 40.09375 
Q 35.75 41.9375 32.8125 42.8125 
Q 29.890625 43.703125 26.90625 43.703125 
Q 19.390625 43.703125 15.28125 39.015625 
Q 11.1875 34.328125 11.1875 25.78125 
Q 11.1875 16.703125 15.203125 11.34375 
Q 19.234375 6 25.984375 6 
Q 28.65625 6 31.75 7.03125 
Q 34.859375 8.0625 38.71875 10.203125 
z
M 48 75.6875 
L 47.953125 74.8125 
Q 47.359375 57.46875 47.015625 41.3125 
L 46.921875 33.6875 
Q 46.828125 31 46.75 26.53125 
Q 46.6875 22.078125 46.6875 16.703125 
L 46.6875 14.796875 
Q 46.6875 7.171875 47.21875 5.34375 
Q 47.75 3.515625 49.3125 3.515625 
Q 50.25 3.515625 51.25 3.703125 
Q 52.25 3.90625 53.328125 4.296875 
L 54.109375 1.21875 
Q 50.6875 -0.09375 47.40625 -0.75 
Q 44.140625 -1.421875 40.828125 -1.421875 
L 39.40625 -1.375 
Q 39.0625 0.734375 38.890625 2.515625 
Q 38.71875 4.296875 38.71875 5.90625 
Q 33.15625 2.34375 29.53125 0.96875 
Q 25.921875 -0.390625 22.515625 -0.390625 
Q 13.96875 -0.390625 8.59375 6.078125 
Q 3.21875 12.546875 3.21875 22.90625 
Q 3.21875 34.421875 10.109375 41.5 
Q 17 48.578125 27.984375 48.578125 
Q 30.46875 48.578125 33.21875 48.109375 
Q 35.984375 47.65625 39.203125 46.6875 
Q 39.203125 47.125 39.265625 48 
Q 39.5 56.546875 39.5 63.375 
Q 39.5 66.453125 38.546875 67.71875 
Q 37.59375 69 35.40625 69 
Q 34.90625 69 34.171875 68.875 
Q 33.453125 68.75 32.171875 68.5 
L 31.59375 71.6875 
Q 35.203125 72.3125 39.25 73.3125 
Q 43.3125 74.3125 48 75.6875 
z
" id="IowanOldStyleW01-Roman-64"/>
     <path d="M 46.921875 7.078125 
L 48.296875 4 
Q 44.625 1.375 41.59375 -0.0625 
Q 38.578125 -1.515625 36.71875 -1.515625 
Q 33.59375 -1.515625 32.03125 0.3125 
Q 30.46875 2.15625 30.328125 5.859375 
Q 25 2.296875 21.484375 0.75 
Q 17.96875 -0.78125 15.1875 -0.78125 
Q 10.25 -0.78125 6.921875 2.921875 
Q 3.609375 6.640625 3.609375 12.015625 
Q 3.609375 21.140625 23.296875 25.78125 
Q 27.9375 26.859375 30.515625 27.484375 
Q 30.515625 28.328125 30.5625 29.890625 
Q 30.71875 33.109375 30.71875 34.078125 
Q 30.71875 39.15625 28.609375 41.578125 
Q 26.515625 44 22.21875 44 
Q 18.015625 44 15.59375 42.453125 
Q 13.1875 40.921875 13.1875 38.28125 
Q 13.1875 38.03125 13.234375 37.609375 
Q 13.28125 37.203125 13.28125 37.015625 
Q 13.28125 35.5 11.8125 34.5 
Q 10.359375 33.5 8.296875 33.5 
Q 6.546875 33.5 5.71875 34.078125 
Q 4.890625 34.671875 4.890625 35.890625 
Q 4.890625 39.796875 11.46875 44.609375 
Q 18.0625 49.421875 25.09375 49.421875 
Q 31.890625 49.421875 35.40625 45.671875 
Q 38.921875 41.9375 38.921875 34.71875 
Q 38.921875 30.8125 38.453125 22.703125 
Q 37.984375 14.59375 37.984375 10.40625 
Q 37.984375 7.234375 38.6875 6.109375 
Q 39.40625 4.984375 41.21875 4.984375 
Q 42 4.984375 43.234375 5.4375 
Q 44.484375 5.90625 46.921875 7.078125 
z
M 30.28125 23.578125 
Q 29.34375 23.34375 27.484375 22.859375 
Q 11.625 18.5 11.625 12.59375 
Q 11.625 9.375 13.671875 7.34375 
Q 15.71875 5.328125 19.09375 5.328125 
Q 21.140625 5.328125 23.828125 6.390625 
Q 26.515625 7.46875 30.078125 9.8125 
z
" id="IowanOldStyleW01-Roman-61"/>
     <path d="M 40.484375 9.625 
L 42.921875 5.90625 
Q 38.1875 2.296875 33.59375 0.4375 
Q 29 -1.421875 24.90625 -1.421875 
Q 15.328125 -1.421875 9.265625 5.4375 
Q 3.21875 12.3125 3.21875 23 
Q 3.21875 34.078125 10.890625 41.75 
Q 18.5625 49.421875 29.59375 49.421875 
Q 35.25 49.421875 38.328125 47.828125 
Q 41.40625 46.234375 41.40625 43.40625 
Q 41.40625 41.359375 40.15625 39.859375 
Q 38.921875 38.375 37.3125 38.375 
Q 36.765625 38.375 32.78125 40.84375 
Q 28.8125 43.3125 25.203125 43.3125 
Q 18.84375 43.3125 15.109375 38.75 
Q 11.375 34.1875 11.375 26.3125 
Q 11.375 16.40625 15.890625 10.859375 
Q 20.40625 5.328125 28.421875 5.328125 
Q 31.390625 5.328125 34.34375 6.34375 
Q 37.3125 7.375 40.484375 9.625 
z
" id="IowanOldStyleW01-Roman-63"/>
     <path d="M 19.28125 49.90625 
Q 19.234375 48.046875 19.140625 44.625 
Q 18.5 25 18.5 17 
L 18.5 11.8125 
Q 18.5 6.15625 19.578125 4.6875 
Q 20.65625 3.21875 23.78125 3.21875 
Q 24.078125 3.21875 24.5625 3.265625 
Q 25.046875 3.328125 25.296875 3.328125 
L 25.296875 0 
Q 21.140625 0.296875 18.59375 0.390625 
Q 16.0625 0.484375 14.3125 0.484375 
Q 12.75 0.484375 10.328125 0.390625 
Q 7.90625 0.296875 3.078125 0 
L 3.078125 3.421875 
L 4.296875 3.421875 
Q 10.359375 3.421875 10.40625 15.328125 
Q 10.40625 17.046875 10.40625 18.015625 
L 10.59375 30.078125 
Q 10.59375 31.390625 10.640625 33.390625 
Q 10.6875 35.40625 10.6875 36.078125 
Q 10.6875 40.046875 9.9375 41.3125 
Q 9.1875 42.578125 7.171875 42.578125 
Q 6.78125 42.578125 6.03125 42.5 
Q 5.28125 42.4375 4.390625 42.328125 
L 3.90625 45.40625 
Q 7.765625 46.140625 11.59375 47.265625 
Q 15.4375 48.390625 19.28125 49.90625 
z
M 14.015625 72.90625 
L 17.484375 70.3125 
Q 18.84375 69.28125 19.484375 68.25 
Q 20.125 67.234375 20.125 66.109375 
Q 20.125 64.984375 19.609375 64.171875 
Q 19.09375 63.375 17.671875 62.3125 
L 14.015625 59.515625 
L 10.59375 62.203125 
Q 9.1875 63.328125 8.546875 64.28125 
Q 7.90625 65.234375 7.90625 66.3125 
Q 7.90625 67.390625 8.390625 68.1875 
Q 8.890625 69 10.40625 70.125 
z
" id="IowanOldStyleW01-Roman-69"/>
     <path d="M 12.984375 12.703125 
L 16.890625 9.8125 
Q 18.5 8.59375 19.25 7.59375 
Q 20.015625 6.59375 20.015625 5.71875 
Q 20.015625 4.546875 19.359375 3.5625 
Q 18.703125 2.59375 17.09375 1.421875 
L 13.28125 -1.421875 
L 9.71875 1.421875 
Q 7.953125 2.6875 7.265625 3.65625 
Q 6.59375 4.640625 6.59375 5.71875 
Q 6.59375 6.640625 7.109375 7.4375 
Q 7.625 8.25 9.515625 9.8125 
z
" id="IowanOldStyleW01-Roman-2e"/>
    </defs>
    <g style="fill:#333337;" transform="translate(391.824375 52.945313)rotate(-270)scale(0.12 -0.12)">
     <use xlink:href="#IowanOldStyleW01-Roman-73"/>
     <use x="44.287109" xlink:href="#IowanOldStyleW01-Roman-65"/>
     <use x="93.066406" xlink:href="#IowanOldStyleW01-Roman-65"/>
     <use x="141.845703" xlink:href="#IowanOldStyleW01-Roman-6e"/>
     <use x="200.244141" xlink:href="#IowanOldStyleW01-Roman-20"/>
     <use x="228.027344" xlink:href="#IowanOldStyleW01-Roman-6f"/>
     <use x="283.105469" xlink:href="#IowanOldStyleW01-Roman-6e"/>
     <use x="341.503906" xlink:href="#IowanOldStyleW01-Roman-20"/>
     <use x="369.287109" xlink:href="#IowanOldStyleW01-Roman-68"/>
     <use x="427.880859" xlink:href="#IowanOldStyleW01-Roman-74"/>
     <use x="463.867188" xlink:href="#IowanOldStyleW01-Roman-74"/>
     <use x="499.853516" xlink:href="#IowanOldStyleW01-Roman-70"/>
     <use x="555.859375" xlink:href="#IowanOldStyleW01-Roman-3a"/>
     <use x="583.642578" xlink:href="#IowanOldStyleW01-Roman-2f"/>
     <use x="629.736328" xlink:href="#IowanOldStyleW01-Roman-2f"/>
     <use x="675.830078" xlink:href="#IowanOldStyleW01-Roman-64"/>
     <use x="732.03125" xlink:href="#IowanOldStyleW01-Roman-61"/>
     <use x="780.126953" xlink:href="#IowanOldStyleW01-Roman-74"/>
     <use x="816.113281" xlink:href="#IowanOldStyleW01-Roman-61"/>
     <use x="864.208984" xlink:href="#IowanOldStyleW01-Roman-73"/>
     <use x="908.496094" xlink:href="#IowanOldStyleW01-Roman-63"/>
     <use x="953.173828" xlink:href="#IowanOldStyleW01-Roman-69"/>
     <use x="982.861328" xlink:href="#IowanOldStyleW01-Roman-65"/>
     <use x="1031.640625" xlink:href="#IowanOldStyleW01-Roman-6e"/>
     <use x="1090.039062" xlink:href="#IowanOldStyleW01-Roman-74"/>
     <use x="1126.025391" xlink:href="#IowanOldStyleW01-Roman-69"/>
     <use x="1155.712891" xlink:href="#IowanOldStyleW01-Roman-73"/>
     <use x="1200" xlink:href="#IowanOldStyleW01-Roman-74"/>
     <use x="1235.986328" xlink:href="#IowanOldStyleW01-Roman-2e"/>
     <use x="1263.769531" xlink:href="#IowanOldStyleW01-Roman-73"/>
     <use x="1308.056641" xlink:href="#IowanOldStyleW01-Roman-70"/>
     <use x="1364.0625" xlink:href="#IowanOldStyleW01-Roman-61"/>
     <use x="1412.158203" xlink:href="#IowanOldStyleW01-Roman-63"/>
     <use x="1456.835938" xlink:href="#IowanOldStyleW01-Roman-65"/>
    </g>
   </g>
   <g id="text_13">
    <!-- 20 examples in each class -->
    <defs>
     <path d="M 14.890625 8.40625 
Q 17.09375 8.34375 20.75 8.296875 
Q 27 8.203125 28.90625 8.203125 
L 35.015625 8.203125 
Q 42.140625 8.203125 44.40625 9.6875 
Q 46.6875 11.1875 47.703125 15.484375 
L 50.78125 14.5 
Q 49.359375 10.640625 48.4375 7.078125 
Q 47.515625 3.515625 46.96875 0 
Q 39.0625 0.25 33.328125 0.359375 
Q 27.59375 0.484375 23 0.484375 
Q 19.046875 0.484375 14.453125 0.359375 
Q 9.859375 0.25 3.90625 0 
L 2.390625 3.328125 
Q 17.828125 16.5 26.5625 28.90625 
Q 35.296875 41.3125 35.296875 49.8125 
Q 35.296875 55.953125 31.65625 60.03125 
Q 28.03125 64.109375 22.515625 64.109375 
Q 18.359375 64.109375 14.859375 61.6875 
Q 11.375 59.28125 7.90625 54 
L 4.109375 56.203125 
Q 8.203125 63.484375 13.34375 67.046875 
Q 18.5 70.609375 24.90625 70.609375 
Q 33.203125 70.609375 39.109375 64.859375 
Q 45.015625 59.125 45.015625 51.125 
Q 45.015625 43.65625 38.59375 34.34375 
Q 32.171875 25.046875 14.890625 8.40625 
z
" id="IowanOldStyleW01-Roman-32"/>
     <path d="M 26.90625 65.28125 
Q 19.734375 65.28125 16.21875 58.375 
Q 12.703125 51.46875 12.703125 37.40625 
Q 12.703125 21 16.828125 12.453125 
Q 20.953125 3.90625 28.8125 3.90625 
Q 35.9375 3.90625 39.46875 10.890625 
Q 43.015625 17.875 43.015625 32.078125 
Q 43.015625 48.1875 38.859375 56.734375 
Q 34.71875 65.28125 26.90625 65.28125 
z
M 3.8125 33.015625 
Q 3.8125 50.140625 10.59375 60.375 
Q 17.390625 70.609375 28.515625 70.609375 
Q 39.3125 70.609375 45.5 61.421875 
Q 51.703125 52.25 51.703125 35.984375 
Q 51.703125 18.890625 44.9375 8.734375 
Q 38.1875 -1.421875 27 -1.421875 
Q 16.21875 -1.421875 10.015625 7.78125 
Q 3.8125 17 3.8125 33.015625 
z
" id="IowanOldStyleW01-Roman-30"/>
     <path d="M 18.0625 49.90625 
Q 17.875 47.90625 17.71875 46.015625 
Q 17.578125 44.140625 17.53125 42.234375 
Q 24.171875 46.4375 27.875 47.875 
Q 31.59375 49.3125 35.015625 49.3125 
Q 39.15625 49.3125 42.0625 47.40625 
Q 44.96875 45.515625 47.015625 41.40625 
Q 53.5625 45.75 57.703125 47.53125 
Q 61.859375 49.3125 65.1875 49.3125 
Q 72.3125 49.3125 75.5625 44.96875 
Q 78.8125 40.625 78.8125 30.90625 
L 78.8125 29.890625 
L 78.609375 13.8125 
Q 78.609375 11.375 78.515625 9.375 
Q 78.515625 9.234375 78.515625 9.1875 
Q 78.515625 5.671875 79.59375 4.546875 
Q 80.671875 3.421875 83.890625 3.421875 
L 85.015625 3.421875 
L 85.015625 0 
Q 80.28125 0.296875 77.9375 0.390625 
Q 75.59375 0.484375 74.125 0.484375 
Q 72.5625 0.484375 70.234375 0.390625 
Q 67.921875 0.296875 63.625 0 
L 63.625 3.421875 
Q 63.921875 3.375 64.359375 3.34375 
Q 64.796875 3.328125 65.578125 3.328125 
Q 68.703125 3.328125 69.75 5.34375 
Q 70.796875 7.375 70.796875 15.1875 
L 70.796875 22.3125 
Q 70.796875 24.078125 70.84375 26.953125 
Q 70.90625 29.828125 70.90625 31 
Q 70.90625 37.25 68.625 40.171875 
Q 66.359375 43.109375 61.625 43.109375 
Q 59.328125 43.109375 56.15625 41.890625 
Q 52.984375 40.671875 48.296875 37.984375 
L 47.90625 13.921875 
L 47.90625 9.90625 
Q 47.90625 5.515625 49 4.46875 
Q 50.09375 3.421875 53.515625 3.421875 
L 54.109375 3.421875 
L 54.109375 0.046875 
Q 50.25 0.25 47.65625 0.359375 
Q 45.0625 0.484375 43.21875 0.484375 
Q 41.359375 0.484375 38.859375 0.359375 
Q 36.375 0.25 33.640625 0 
L 33.59375 3.421875 
Q 37.015625 3.421875 38.03125 3.984375 
Q 39.0625 4.546875 39.5 6.59375 
Q 39.84375 8.203125 40.015625 14.75 
Q 40.1875 21.296875 40.1875 31.5 
Q 40.1875 37.59375 38.015625 40.34375 
Q 35.84375 43.109375 31.109375 43.109375 
Q 28.8125 43.109375 25.609375 41.90625 
Q 22.40625 40.71875 17.921875 38.1875 
Q 17.625 30.21875 17.5 24.359375 
Q 17.390625 18.5 17.390625 13.71875 
Q 17.390625 6.25 18.390625 4.78125 
Q 19.390625 3.328125 22.609375 3.328125 
Q 22.859375 3.328125 23.359375 3.375 
Q 23.875 3.421875 24.21875 3.421875 
L 24.171875 0 
Q 21.140625 0.25 18.3125 0.359375 
Q 15.484375 0.484375 12.984375 0.484375 
Q 10.84375 0.484375 8.203125 0.359375 
Q 5.5625 0.25 2.640625 0 
L 2.59375 3.421875 
L 3.515625 3.421875 
Q 9.625 3.421875 9.671875 15.28125 
Q 9.671875 17.046875 9.71875 18.015625 
L 9.8125 29.984375 
L 9.8125 34.8125 
Q 9.8125 39.59375 9.078125 41.078125 
Q 8.34375 42.578125 6.390625 42.578125 
Q 6 42.578125 5.390625 42.484375 
Q 4.78125 42.390625 4.109375 42.1875 
L 3.515625 45.21875 
Q 7.125 46.1875 10.78125 47.359375 
Q 14.453125 48.53125 18.0625 49.90625 
z
" id="IowanOldStyleW01-Roman-6d"/>
     <path d="M 18.40625 75.484375 
Q 18.109375 66.40625 18.0625 51.859375 
Q 18.015625 46.234375 18.015625 43.796875 
L 17.921875 33.796875 
L 17.921875 26.21875 
L 17.921875 16.015625 
L 17.921875 12.015625 
Q 17.921875 6.390625 19.15625 4.90625 
Q 20.40625 3.421875 23.875 3.421875 
L 25 3.421875 
L 25 0 
Q 21.625 0.25 18.671875 0.359375 
Q 15.71875 0.484375 13.484375 0.484375 
Q 11.1875 0.484375 8.453125 0.359375 
Q 5.71875 0.25 2.734375 0 
L 2.6875 3.421875 
Q 3.03125 3.421875 3.53125 3.375 
Q 4.046875 3.328125 4.296875 3.328125 
Q 7.71875 3.328125 8.859375 5.109375 
Q 10.015625 6.890625 10.015625 15.484375 
L 10.015625 19.09375 
L 10.203125 55.8125 
L 10.203125 64.203125 
Q 10.203125 66.3125 9.296875 67.359375 
Q 8.40625 68.40625 6.59375 68.40625 
Q 5.90625 68.40625 4.046875 68.0625 
Q 3.8125 68.015625 3.71875 68.015625 
L 2.984375 71.1875 
Q 7.078125 71.875 10.90625 72.953125 
Q 14.75 74.03125 18.40625 75.484375 
z
" id="IowanOldStyleW01-Roman-6c"/>
    </defs>
    <g style="fill:#333337;" transform="translate(141.794688 28.56)scale(0.14 -0.14)">
     <use xlink:href="#IowanOldStyleW01-Roman-32"/>
     <use x="55.615234" xlink:href="#IowanOldStyleW01-Roman-30"/>
     <use x="111.230469" xlink:href="#IowanOldStyleW01-Roman-20"/>
     <use x="139.013672" xlink:href="#IowanOldStyleW01-Roman-65"/>
     <use x="187.792969" xlink:href="#IowanOldStyleW01-Roman-78"/>
     <use x="240.771484" xlink:href="#IowanOldStyleW01-Roman-61"/>
     <use x="288.867188" xlink:href="#IowanOldStyleW01-Roman-6d"/>
     <use x="376.855469" xlink:href="#IowanOldStyleW01-Roman-70"/>
     <use x="432.861328" xlink:href="#IowanOldStyleW01-Roman-6c"/>
     <use x="462.060547" xlink:href="#IowanOldStyleW01-Roman-65"/>
     <use x="510.839844" xlink:href="#IowanOldStyleW01-Roman-73"/>
     <use x="555.126953" xlink:href="#IowanOldStyleW01-Roman-20"/>
     <use x="582.910156" xlink:href="#IowanOldStyleW01-Roman-69"/>
     <use x="612.597656" xlink:href="#IowanOldStyleW01-Roman-6e"/>
     <use x="670.996094" xlink:href="#IowanOldStyleW01-Roman-20"/>
     <use x="698.779297" xlink:href="#IowanOldStyleW01-Roman-65"/>
     <use x="747.558594" xlink:href="#IowanOldStyleW01-Roman-61"/>
     <use x="795.654297" xlink:href="#IowanOldStyleW01-Roman-63"/>
     <use x="840.332031" xlink:href="#IowanOldStyleW01-Roman-68"/>
     <use x="898.925781" xlink:href="#IowanOldStyleW01-Roman-20"/>
     <use x="926.708984" xlink:href="#IowanOldStyleW01-Roman-63"/>
     <use x="971.386719" xlink:href="#IowanOldStyleW01-Roman-6c"/>
     <use x="1000.585938" xlink:href="#IowanOldStyleW01-Roman-61"/>
     <use x="1048.681641" xlink:href="#IowanOldStyleW01-Roman-73"/>
     <use x="1092.96875" xlink:href="#IowanOldStyleW01-Roman-73"/>
    </g>
   </g>
  </g>
 </g>
 <defs>
  <clipPath id="p165b39e6a7">
   <rect height="217.44" width="334.8" x="54" y="34.56"/>
  </clipPath>
 </defs>
</svg>
