<?xml version="1.0" standalone="no"?>
<!DOCTYPE svg PUBLIC "-//W3C//DTD SVG 20010904//EN"
 "http://www.w3.org/TR/2001/REC-SVG-20010904/DTD/svg10.dtd">
<svg version="1.0" xmlns="http://www.w3.org/2000/svg"
 width="132.000000pt" height="132.000000pt" viewBox="0 0 132.000000 132.000000"
 preserveAspectRatio="xMidYMid meet">
<metadata>
Created by potrace 1.11, written by Peter Selinger 2001-2013
</metadata>
<g transform="translate(0.000000,132.000000) scale(0.100000,-0.100000)"
fill="#000000" stroke="none">
<path d="M300 1207 c-12 -10 -15 -39 -15 -144 0 -73 -4 -133 -8 -133 -4 0 -3
-8 2 -18 7 -13 6 -23 -1 -30 -7 -7 -8 -12 -4 -12 5 0 3 -7 -4 -15 -11 -13 -10
-18 5 -29 16 -12 17 -13 1 -19 -13 -5 -15 -11 -6 -26 7 -14 7 -22 0 -26 -7 -5
-8 -11 -1 -19 6 -7 6 -17 1 -26 -5 -8 -4 -22 2 -33 5 -11 6 -17 1 -14 -4 3 -8
-46 -9 -107 l-1 -113 -42 -56 c-23 -31 -42 -60 -42 -64 -1 -5 -6 -7 -12 -5 -7
2 -9 0 -5 -4 4 -4 2 -14 -5 -22 -10 -13 -9 -14 3 -7 12 7 13 6 3 -7 -7 -8 -10
-18 -6 -21 3 -4 1 -7 -6 -7 -12 0 -9 -39 5 -61 4 -8 3 -9 -4 -5 -22 13 -12 -9
11 -26 22 -15 47 -22 73 -19 5 0 26 13 45 27 20 16 26 24 14 20 -18 -6 -19 -5
-3 7 10 8 15 17 11 20 -3 4 -2 7 3 7 5 0 9 24 9 53 -1 60 3 79 16 71 5 -3 5 6
-1 20 -6 18 -6 26 1 26 6 0 8 4 4 10 -10 16 6 60 23 60 8 0 13 3 9 6 -3 3 10
21 29 40 18 19 33 40 31 46 -1 7 8 17 19 22 12 5 29 22 39 38 9 15 21 28 26
28 6 0 8 4 4 9 -8 14 15 25 27 13 8 -8 8 -15 -1 -26 -8 -10 -9 -16 -1 -21 6
-3 8 -11 5 -16 -5 -8 -9 -109 -6 -164 1 -14 8 -20 26 -20 32 0 43 30 47 127 1
25 5 45 8 43 9 -5 6 33 -3 41 -10 11 -8 24 4 24 5 0 7 -6 3 -12 -4 -7 -3 -10
1 -5 5 4 9 21 9 39 1 26 5 31 29 34 15 1 25 -2 22 -7 -4 -5 -1 -10 4 -10 6 -1
15 -2 21 -3 5 0 15 -7 22 -13 6 -7 18 -13 25 -13 7 0 13 -5 13 -12 0 -6 3 -8
6 -5 4 3 19 -7 34 -23 16 -17 33 -30 40 -30 7 0 10 -6 7 -13 -3 -7 4 -19 14
-25 10 -7 19 -18 19 -26 0 -8 7 -17 16 -20 8 -3 12 -10 9 -16 -3 -5 -1 -10 4
-10 6 0 11 -8 11 -18 0 -29 38 -64 58 -53 16 9 26 91 11 91 -4 0 -6 7 -5 16 1
9 0 36 -4 60 -4 26 -3 48 4 55 6 7 7 9 1 6 -6 -3 -10 18 -10 54 0 54 5 64 28
60 4 0 7 3 7 8 0 5 11 8 25 6 17 -1 25 3 25 14 0 10 3 12 8 5 4 -6 14 -10 22
-8 8 2 24 5 35 6 11 2 24 9 28 16 6 9 12 10 20 3 18 -14 59 19 48 38 -10 16
-34 5 -25 -12 3 -7 -1 -4 -9 6 -8 10 -17 14 -18 8 -2 -5 -13 -11 -24 -13 -11
-1 -22 -6 -25 -10 -3 -4 -23 -9 -45 -12 -22 -2 -42 -5 -45 -6 -3 -2 -8 -2 -12
-1 -5 0 -8 -3 -8 -7 0 -16 -30 -9 -31 7 -6 62 -3 138 6 150 7 10 7 13 0 9 -6
-4 -10 9 -10 32 0 23 4 36 10 32 5 -3 4 2 -4 11 -7 9 -9 17 -4 17 5 0 9 9 9
20 0 11 -5 20 -11 20 -6 0 -7 3 0 8 15 11 13 92 -2 92 -7 0 -13 4 -13 10 0 5
-9 2 -20 -7 -14 -13 -17 -20 -8 -30 6 -7 6 -13 1 -13 -6 0 -9 -31 -8 -70 0
-38 -1 -70 -4 -70 -3 0 -6 -53 -6 -117 l0 -117 -35 -7 c-21 -5 -37 -3 -41 3
-4 7 -8 6 -11 -3 -4 -12 -58 -21 -58 -9 0 3 -28 4 -62 3 -83 -3 -90 0 -78 32
7 18 6 25 -3 25 -8 0 -9 3 -1 8 6 4 10 19 9 35 -1 15 2 27 7 27 5 0 4 9 -2 20
-8 15 -8 20 2 20 9 0 9 3 -2 10 -8 5 -10 10 -4 10 6 0 10 25 10 63 -1 34 1 88
4 119 3 31 2 54 -2 52 -4 -3 -8 -1 -8 4 0 5 -7 9 -16 9 -17 0 -47 -50 -37 -61
10 -10 12 -36 3 -36 -4 0 -6 -11 -5 -25 2 -14 0 -25 -3 -25 -4 0 -7 -33 -7
-73 0 -40 -5 -80 -12 -91 -9 -14 -9 -23 -1 -33 8 -9 7 -13 -1 -13 -7 0 -10 -4
-6 -10 7 -11 -20 -78 -41 -102 -9 -9 -13 -21 -9 -27 3 -6 0 -8 -8 -5 -8 3 -18
0 -23 -7 -5 -8 -3 -10 7 -5 8 4 6 1 -3 -7 -10 -8 -18 -19 -18 -26 0 -6 -4 -11
-10 -11 -5 0 -10 -7 -10 -17 0 -9 -2 -14 -5 -11 -7 6 -85 -71 -85 -84 0 -5 -5
-6 -10 -3 -6 4 -8 11 -5 16 4 5 2 9 -3 9 -15 0 -9 33 8 48 8 8 10 11 3 7 -9
-4 -12 8 -11 44 1 27 5 48 8 46 3 -2 6 113 7 256 1 142 -2 259 -7 259 -5 0
-14 2 -22 5 -7 2 -20 -1 -28 -8z m628 -552 l-3 -67 -32 31 c-18 17 -37 31 -42
31 -6 0 -16 8 -23 19 -13 18 -18 21 -36 21 -5 0 -9 6 -9 13 0 8 6 14 13 14 7
0 11 -5 8 -11 -3 -6 2 -2 10 8 9 11 16 15 16 10 0 -6 7 -11 15 -11 8 0 12 4 9
8 -5 9 58 17 69 8 4 -3 7 -36 5 -74z m-373 25 c3 -5 2 -10 -4 -10 -5 0 -13 5
-16 10 -3 6 -2 10 4 10 5 0 13 -4 16 -10z m-291 -357 c2 -10 -1 -24 -7 -30 -6
-9 -6 -13 0 -13 12 0 4 -50 -11 -69 -9 -12 -8 -13 3 -6 10 5 12 4 7 -3 -8 -13
-45 -16 -47 -4 -5 34 -3 70 3 66 4 -3 8 4 8 15 0 11 7 27 16 35 8 9 13 16 9
16 -3 0 -3 5 0 11 9 13 16 7 19 -18z"/>
</g>
</svg>
