<?xml version="1.0" encoding="utf-8"?>
<!-- Svg Vector Icons : http://www.onlinewebfonts.com/icon -->
<!DOCTYPE svg PUBLIC "-//W3C//DTD SVG 1.1//EN" "http://www.w3.org/Graphics/SVG/1.1/DTD/svg11.dtd">
<svg version="1.1" xmlns="http://www.w3.org/2000/svg" xmlns:xlink="http://www.w3.org/1999/xlink" x="0px" y="0px" viewBox="0 0 1000 1000" enable-background="new 0 0 1000 1000" xml:space="preserve">
<metadata> Svg Vector Icons : http://www.onlinewebfonts.com/icon </metadata>
<g><path d="M464,853.5H272l0,0H464L464,853.5z"/><path d="M946.4,101.9c-7.3-0.6-14.7-0.4-21.4,0.2H47.3c-35.3-0.4-39.2,37.7-36.7,64.4v694.5c-0.4,35.3,37.7,39.2,64.4,36.7h877.6c35.3,0.4,39.2-37.7,36.7-64.4V138.8C989.7,112.4,968.3,103.6,946.4,101.9z M80.7,167.9h85.7v85.7H80.7V167.9z M200.5,167.9h171.5v85.7H200.5V167.9z M109.1,312.9h777.6c38.5,1.9,41.6,45.2,39.6,75.1c-0.5,125.6,1,251.2-0.8,376.7c-3.3,36.1-40.5,40.5-69,37.8H109.1c-38.5-1.9-41.6-45.2-39.6-75.1c0.5-125.6-1-251.2,0.8-376.7C73.2,331.6,88.6,312.7,109.1,312.9z M221.5,425.9l-34.9,35l103.7,103.7L186.6,668.4l34.9,35l138.9-138.8L221.5,425.9z M408.5,640.1v63.3h203.4v-63.3H408.5z"/></g>
</svg>