<?xml version="1.0" encoding="iso-8859-1"?>
<!-- Generator: Adobe Illustrator 19.0.0, SVG Export Plug-In . SVG Version: 6.00 Build 0)  -->
<svg version="1.1" id="Capa_1" xmlns="http://www.w3.org/2000/svg" xmlns:xlink="http://www.w3.org/1999/xlink" x="0px" y="0px"
	 viewBox="0 0 511.248 511.248" style="enable-background:new 0 0 511.248 511.248;" xml:space="preserve">
<g>
	<path style="fill:#FFFFFF;" d="M290.131,204.424V74.442c0-1.738-0.69-3.404-1.919-4.633c-1.229-1.229-2.895-1.919-4.633-1.919
		h-83.606c-2.301,0-4.434-1.207-5.618-3.181l-21.783-36.305c-1.184-1.973-3.317-3.181-5.618-3.181H49.216
		c-3.618,0-6.551,2.933-6.551,6.551v172.649H290.131z"/>
	<path style="fill:#7FACFA;" d="M462.78,67.89h-83.606c-2.301,0-4.434-1.208-5.618-3.181l18.975,139.715h76.8V74.44
		C469.331,70.823,466.397,67.89,462.78,67.89z"/>
	<g>
		<path style="fill:#A4C2F7;" d="M443.731,204.424V74.442c0-3.618-2.933-6.551-6.551-6.551H204.798
			c-2.301,0-4.434-1.207-5.618-3.181l-21.783-36.305c-1.184-1.973-3.316-3.181-5.618-3.181H74.816c-3.618,0-6.551,2.933-6.551,6.551
			v172.649H443.731z"/>
		<path style="fill:#A4C2F7;" d="M458.433,486.024H324.265c-1.144,0-2.116-0.836-2.287-1.966l-41.966-276.975
			c-0.101-0.666,0.094-1.343,0.533-1.854c0.439-0.511,1.08-0.805,1.754-0.805h218.1c0.674,0,1.314,0.294,1.754,0.805
			c0.439,0.511,0.634,1.188,0.533,1.855L460.72,484.058C460.548,485.188,459.577,486.024,458.433,486.024z"/>
	</g>
	<path style="fill:#FFFFFF;" d="M186.119,486.024H51.951c-1.144,0-2.116-0.836-2.287-1.966L7.698,207.083
		c-0.101-0.666,0.094-1.343,0.533-1.854c0.439-0.511,1.08-0.805,1.754-0.805h218.1c0.674,0,1.314,0.294,1.754,0.805
		c0.439,0.511,0.634,1.188,0.533,1.855l-41.966,276.975C188.234,485.188,187.262,486.024,186.119,486.024z"/>
	<g>
		<rect x="68.23" y="170.29" style="fill:#A4C2F7;" width="375.467" height="34.133"/>
		<rect x="76.763" y="144.69" style="fill:#A4C2F7;" width="358.4" height="25.6"/>
		<rect x="85.296" y="119.09" style="fill:#A4C2F7;" width="341.333" height="25.6"/>
	</g>
	<path style="fill:#E3E7F2;" d="M432.833,486.024H78.41c-1.144,0-2.116-0.836-2.287-1.966L34.158,207.083
		c-0.101-0.666,0.094-1.343,0.533-1.854c0.439-0.511,1.08-0.805,1.754-0.805h438.354c0.674,0,1.314,0.294,1.754,0.805
		c0.439,0.511,0.634,1.188,0.533,1.855L435.12,484.058C434.948,485.188,433.977,486.024,432.833,486.024z"/>
	
		<linearGradient id="SVGID_1_" gradientUnits="userSpaceOnUse" x1="-48.9841" y1="651.4122" x2="-48.1683" y2="650.1205" gradientTransform="matrix(162.1333 0 0 -102.4 8195.8135 67013.5703)">
		<stop  offset="0" style="stop-color:#D4E1F4"/>
		<stop  offset="0.1717" style="stop-color:#D4E1F4"/>
		<stop  offset="0.2" style="stop-color:#D4E1F4"/>
		<stop  offset="0.2001" style="stop-color:#DAE4F4"/>
		<stop  offset="0.2007" style="stop-color:#EBEBF4"/>
		<stop  offset="0.2014" style="stop-color:#F6F1F4"/>
		<stop  offset="0.2023" style="stop-color:#FDF4F4"/>
		<stop  offset="0.205" style="stop-color:#FFF5F4"/>
		<stop  offset="0.2522" style="stop-color:#FFF5F4"/>
		<stop  offset="0.26" style="stop-color:#FFF5F4"/>
		<stop  offset="0.26" style="stop-color:#D4E1F4"/>
		<stop  offset="0.3974" style="stop-color:#D4E1F4"/>
		<stop  offset="0.42" style="stop-color:#D4E1F4"/>
		<stop  offset="0.4201" style="stop-color:#DAE4F4"/>
		<stop  offset="0.4207" style="stop-color:#EBEBF4"/>
		<stop  offset="0.4214" style="stop-color:#F6F1F4"/>
		<stop  offset="0.4223" style="stop-color:#FDF4F4"/>
		<stop  offset="0.425" style="stop-color:#FFF5F4"/>
		<stop  offset="0.4894" style="stop-color:#FFF5F4"/>
		<stop  offset="0.5" style="stop-color:#FFF5F4"/>
		<stop  offset="0.5" style="stop-color:#F9F2F4"/>
		<stop  offset="0.5001" style="stop-color:#E8EBF4"/>
		<stop  offset="0.5003" style="stop-color:#DDE5F4"/>
		<stop  offset="0.5005" style="stop-color:#D6E2F4"/>
		<stop  offset="0.501" style="stop-color:#D4E1F4"/>
		<stop  offset="0.7062" style="stop-color:#D4E1F4"/>
		<stop  offset="0.74" style="stop-color:#D4E1F4"/>
		<stop  offset="0.741" style="stop-color:#FFF5F4"/>
		<stop  offset="0.8346" style="stop-color:#FFF5F4"/>
		<stop  offset="0.85" style="stop-color:#FFF5F4"/>
		<stop  offset="0.851" style="stop-color:#D4E1F4"/>
	</linearGradient>
	<polygon style="fill:url(#SVGID_1_);" points="375.464,323.89 238.93,323.89 238.93,426.29 375.464,426.29 401.064,426.29 
		401.064,323.89 	"/>
	<g>
		<path style="fill:#428DFF;" d="M458.43,494.557H52.813c-5.364,0.024-9.932-3.895-10.725-9.2l-41.967-277
			c-0.472-3.124,0.442-6.298,2.503-8.694c2.06-2.395,5.063-3.773,8.222-3.773h489.55c3.157,0.001,6.156,1.377,8.217,3.767
			c2.061,2.391,2.98,5.56,2.516,8.683l-41.975,276.992C468.373,490.648,463.802,494.579,458.43,494.557L458.43,494.557z
			 M58.155,477.49h394.933l40.075-264.533H18.08L58.155,477.49z"/>
		<path style="fill:#428DFF;" d="M469.33,212.957H42.664c-2.264,0.001-4.435-0.897-6.035-2.498
			c-1.601-1.601-2.499-3.772-2.498-6.035V31.774c0.01-8.326,6.757-15.073,15.083-15.083h117.742
			c5.297,0.015,10.201,2.796,12.933,7.333l21.208,35.333H462.78c8.327,0.009,15.074,6.757,15.084,15.083v129.983
			c0.001,2.264-0.897,4.435-2.498,6.035S471.594,212.958,469.33,212.957z M51.197,195.89h409.6V76.424H199.972
			c-5.297-0.015-10.201-2.796-12.933-7.333L165.83,33.757H51.197V195.89z"/>
		<path style="fill:#428DFF;" d="M443.73,212.957H68.264c-2.264,0.001-4.435-0.897-6.035-2.498
			c-1.601-1.601-2.499-3.772-2.498-6.035V170.29c-0.001-2.264,0.897-4.435,2.498-6.035c1.601-1.601,3.772-2.499,6.035-2.498H443.73
			c2.264-0.001,4.435,0.897,6.035,2.498s2.499,3.772,2.498,6.035v34.133c0.001,2.264-0.897,4.435-2.498,6.035
			S445.994,212.958,443.73,212.957L443.73,212.957z M76.797,195.89h358.4v-17.067h-358.4V195.89z"/>
		<path style="fill:#428DFF;" d="M435.197,178.824h-358.4c-2.264,0.001-4.435-0.897-6.035-2.498
			c-1.601-1.601-2.499-3.772-2.498-6.035v-25.6c-0.001-2.264,0.897-4.435,2.498-6.035c1.601-1.601,3.772-2.499,6.035-2.498h358.4
			c2.264-0.001,4.435,0.897,6.035,2.498s2.499,3.772,2.498,6.035v25.6c0.001,2.264-0.897,4.435-2.498,6.035
			S437.461,178.825,435.197,178.824L435.197,178.824z M85.33,161.757h341.333v-8.533H85.33V161.757z"/>
		<path style="fill:#428DFF;" d="M426.664,153.224H85.33c-2.264,0.001-4.435-0.897-6.035-2.498s-2.499-3.772-2.498-6.035v-25.6
			c-0.001-2.264,0.897-4.435,2.498-6.035c1.601-1.601,3.772-2.499,6.035-2.498h341.333c2.264-0.001,4.435,0.897,6.035,2.498
			c1.601,1.601,2.499,3.772,2.498,6.035v25.6c0.001,2.264-0.897,4.435-2.498,6.035C431.099,152.326,428.927,153.225,426.664,153.224
			L426.664,153.224z M93.864,136.157H418.13v-8.533H93.864V136.157z"/>
		<path style="fill:#428DFF;" d="M401.064,434.824H238.93c-2.264,0.001-4.435-0.897-6.035-2.498
			c-1.601-1.601-2.499-3.772-2.498-6.035v-102.4c-0.001-2.264,0.897-4.435,2.498-6.035c1.601-1.601,3.772-2.499,6.035-2.498h162.133
			c2.264-0.001,4.435,0.897,6.035,2.498c1.601,1.601,2.499,3.772,2.498,6.035v102.4c0.001,2.264-0.897,4.435-2.498,6.035
			C405.499,433.926,403.327,434.825,401.064,434.824L401.064,434.824z M247.464,417.757H392.53v-85.333H247.464V417.757z"/>
		<path style="fill:#428DFF;" d="M306.822,366.557h-34.133c-4.713,0-8.533-3.82-8.533-8.533s3.82-8.533,8.533-8.533h34.133
			c4.713,0,8.533,3.82,8.533,8.533S311.534,366.557,306.822,366.557z"/>
		<path style="fill:#428DFF;" d="M349.488,366.557h-8.533c-4.713,0-8.533-3.82-8.533-8.533s3.82-8.533,8.533-8.533h8.533
			c4.713,0,8.533,3.82,8.533,8.533S354.201,366.557,349.488,366.557z"/>
		<path style="fill:#428DFF;" d="M366.555,400.69h-93.867c-4.713,0-8.533-3.821-8.533-8.533s3.82-8.533,8.533-8.533h93.867
			c4.713,0,8.533,3.82,8.533,8.533S371.268,400.69,366.555,400.69z"/>
	</g>
</g>
<g>
</g>
<g>
</g>
<g>
</g>
<g>
</g>
<g>
</g>
<g>
</g>
<g>
</g>
<g>
</g>
<g>
</g>
<g>
</g>
<g>
</g>
<g>
</g>
<g>
</g>
<g>
</g>
<g>
</g>
</svg>
