<svg height="512pt" viewBox="-109 0 512 512" width="512pt" xmlns="http://www.w3.org/2000/svg"><path d="m133.710938 504.476562h-82.949219v-11.597656c0-22.90625 18.566406-41.472656 41.472656-41.472656s41.472656 18.566406 41.472656 41.472656v11.597656zm0 0" fill="#9c8f9a"/><path d="m160.855469 504.476562h82.949219v-11.597656c0-22.90625-18.570313-41.472656-41.472657-41.472656-22.90625 0-41.472656 18.566406-41.472656 41.472656v11.597656zm0 0" fill="#9c8f9a"/><path d="m52.273438 481.789062c-.976563 3.53125-1.511719 7.246094-1.511719 11.089844v11.597656h82.949219v-11.597656c0-3.84375-.535157-7.558594-1.511719-11.089844zm0 0" fill="#8c808a"/><path d="m162.367188 481.789062c-.976563 3.53125-1.511719 7.246094-1.511719 11.089844v11.597656h82.949219v-11.597656c0-3.84375-.53125-7.558594-1.511719-11.089844zm0 0" fill="#8c808a"/><g fill="#cac0c9"><path d="m92.234375 451.40625c7.648437 0 14.804687 2.078125 20.957031 5.6875v-113.035156h-41.910156v113.035156c6.152344-3.609375 13.308594-5.6875 20.953125-5.6875zm0 0"/><path d="m202.332031 451.40625c-7.648437 0-14.804687 2.078125-20.957031 5.6875v-113.035156h41.910156v113.035156c-6.152344-3.609375-13.308594-5.6875-20.953125-5.6875zm0 0"/><path d="m28.476562 371.242188c-11.574218 0-20.953124-9.382813-20.953124-20.957032v-124.570312c0-11.570313 9.378906-20.953125 20.953124-20.953125 11.574219 0 20.953126 9.382812 20.953126 20.953125v124.570312c0 11.574219-9.378907 20.957032-20.953126 20.957032zm0 0"/><path d="m266.089844 371.242188c11.574218 0 20.953125-9.382813 20.953125-20.957032v-124.570312c0-11.570313-9.378907-20.953125-20.953125-20.953125-11.574219 0-20.953125 9.382812-20.953125 20.953125v124.570312c0 11.574219 9.378906 20.957032 20.953125 20.957032zm0 0"/></g><path d="m28.476562 344.164062c-11.574218 0-20.953124-9.382812-20.953124-20.957031v27.078125c0 11.574219 9.378906 20.957032 20.953124 20.957032 11.574219 0 20.953126-9.382813 20.953126-20.957032v-27.078125c0 11.574219-9.378907 20.957031-20.953126 20.957031zm0 0" fill="#bbb0ba"/><path d="m266.089844 344.164062c-11.574219 0-20.953125-9.382812-20.953125-20.957031v27.078125c0 11.574219 9.382812 20.957032 20.953125 20.957032 11.574218 0 20.953125-9.382813 20.953125-20.957032v-27.078125c0 11.574219-9.382813 20.957031-20.953125 20.957031zm0 0" fill="#bbb0ba"/><path d="m49.429688 204.761719h195.707031v139.296875h-195.707031zm0 0" fill="#e6e2e6"/><path d="m71.28125 344.058594h41.910156v27.074218h-41.910156zm0 0" fill="#bbb0ba"/><path d="m181.375 344.058594h41.910156v27.074218h-41.910156zm0 0" fill="#bbb0ba"/><path d="m49.429688 316.980469h195.707031v27.078125h-195.707031zm0 0" fill="#d8d1d7"/><path d="m115.527344 178.449219h63.511718v26.3125h-63.511718zm0 0" fill="#9c8f9a"/><path d="m232.035156 100.804688c-5.5 0-10.585937 1.75-14.746094 4.71875v41.429687c4.160157 2.964844 9.246094 4.71875 14.746094 4.71875 14.046875 0 25.433594-11.386719 25.433594-25.433594s-11.386719-25.433593-25.433594-25.433593zm0 0" fill="#cac0c9"/><path d="m77.277344 105.523438c-4.160156-2.96875-9.25-4.71875-14.746094-4.71875-14.046875 0-25.433594 11.386718-25.433594 25.433593s11.386719 25.433594 25.433594 25.433594c5.496094 0 10.585938-1.753906 14.746094-4.71875zm0 0" fill="#cac0c9"/><path d="m232.035156 130.609375c-5.5 0-10.585937-1.75-14.746094-4.714844v21.058594c4.160157 2.96875 9.246094 4.71875 14.746094 4.71875 14.046875 0 25.433594-11.386719 25.433594-25.433594 0-3.757812-.820312-7.320312-2.285156-10.53125-4.003906 8.789063-12.859375 14.902344-23.148438 14.902344zm0 0" fill="#bbb0ba"/><path d="m39.378906 115.707031c-1.460937 3.210938-2.28125 6.773438-2.28125 10.53125 0 14.046875 11.386719 25.433594 25.433594 25.433594 5.496094 0 10.585938-1.753906 14.746094-4.71875v-21.0625c-4.160156 2.96875-9.25 4.71875-14.746094 4.71875-10.289062 0-19.144531-6.113281-23.152344-14.902344zm0 0" fill="#bbb0ba"/><path d="m168.753906 28.992188c0 11.859374-9.613281 21.46875-21.472656 21.46875-11.855469 0-21.46875-9.609376-21.46875-21.46875 0-11.859376 9.613281-21.46875 21.46875-21.46875 11.859375 0 21.472656 9.609374 21.472656 21.46875zm0 0" fill="#ff4755"/><path d="m147.28125 32.410156c-8.628906 0-16.046875-5.101562-19.460938-12.445312-1.277343 2.75-2.007812 5.800781-2.007812 9.027344 0 11.859374 9.613281 21.46875 21.46875 21.46875 11.859375 0 21.472656-9.609376 21.472656-21.46875 0-3.226563-.734375-6.277344-2.011718-9.027344-3.410157 7.34375-10.828126 12.445312-19.460938 12.445312zm0 0" fill="#fc2b3a"/><path d="m202.246094 178.449219h-109.925782c-8.308593 0-15.042968-6.734375-15.042968-15.042969v-74.335938c0-8.308593 6.734375-15.042968 15.042968-15.042968h109.925782c8.308594 0 15.042968 6.734375 15.042968 15.042968v74.335938c0 8.308594-6.734374 15.042969-15.042968 15.042969zm0 0" fill="#e6e2e6"/><path d="m202.246094 151.371094h-109.925782c-8.308593 0-15.042968-6.734375-15.042968-15.042969v27.078125c0 8.308594 6.734375 15.042969 15.042968 15.042969h109.925782c8.308594 0 15.042968-6.734375 15.042968-15.042969v-27.078125c0 8.308594-6.734374 15.042969-15.042968 15.042969zm0 0" fill="#d8d1d7"/><path d="m114.613281 112.847656c-6.324219 0-11.46875 5.140625-11.46875 11.464844s5.144531 11.46875 11.46875 11.46875 11.464844-5.144531 11.464844-11.46875-5.144531-11.464844-11.464844-11.464844zm0 0"/><path d="m179.953125 112.847656c-6.324219 0-11.46875 5.140625-11.46875 11.464844s5.144531 11.46875 11.46875 11.46875 11.46875-5.144531 11.46875-11.46875-5.144531-11.464844-11.46875-11.464844zm0 0"/><path d="m287.042969 305.0625c4.15625 0 7.523437-3.367188 7.523437-7.523438v-71.824218c0-15.699219-12.773437-28.476563-28.476562-28.476563-5.238282 0-10.144532 1.425781-14.363282 3.902344-1.277343-2.324219-3.75-3.902344-6.589843-3.902344h-58.574219v-11.269531h15.6875c12.441406 0 22.5625-10.121094 22.5625-22.5625v-5.023438c2.351562.527344 4.769531.808594 7.222656.808594 18.171875 0 32.957032-14.78125 32.957032-32.953125s-14.785157-32.957031-32.957032-32.957031c-2.453125 0-4.871094.28125-7.222656.808594v-5.019532c0-12.441406-10.121094-22.566406-22.5625-22.566406h-47.445312v-9.515625c12.351562-3.320312 21.472656-14.609375 21.472656-27.996093-.003906-15.984376-13.007813-28.992188-28.996094-28.992188-15.984375 0-28.992188 13.007812-28.992188 28.992188 0 13.386718 9.121094 24.675781 21.472657 27.996093v9.515625h-47.445313c-12.441406 0-22.5625 10.125-22.5625 22.566406v5.019532c-2.351562-.527344-4.769531-.808594-7.222656-.808594-18.171875 0-32.957031 14.785156-32.957031 32.957031s14.785156 32.953125 32.957031 32.953125c2.453125 0 4.871094-.28125 7.222656-.808594v5.023438c0 12.441406 10.121094 22.5625 22.5625 22.5625h15.6875v11.269531h-58.574218c-2.839844 0-5.3125 1.578125-6.59375 3.902344-4.21875-2.476563-9.125-3.902344-14.359376-3.902344-15.703124 0-28.476562 12.777344-28.476562 28.476563v15.496094c0 4.15625 3.367188 7.523437 7.523438 7.523437 4.152343 0 7.519531-3.367187 7.519531-7.523437v-15.496094c0-7.40625 6.027343-13.433594 13.433593-13.433594s13.433594 6.027344 13.433594 13.433594v124.570312c0 7.40625-6.027344 13.433594-13.433594 13.433594s-13.433593-6.027344-13.433593-13.433594v-78.988281c0-4.152344-3.367188-7.519531-7.519531-7.519531-4.15625 0-7.523438 3.367187-7.523438 7.519531v78.988281c0 8.28125 3.554688 15.746094 9.21875 20.957032-5.664062 5.207031-9.21875 12.671874-9.21875 20.953124v20.957032c0 4.152344 3.367188 7.519531 7.523438 7.519531 4.152343 0 7.519531-3.367187 7.519531-7.519531v-20.957032c0-7.40625 6.027343-13.433593 13.433593-13.433593s13.433594 6.027343 13.433594 13.433593v20.957032c0 4.152344 3.367188 7.519531 7.519532 7.519531 4.15625 0 7.523437-3.367187 7.523437-7.519531v-20.957032c0-8.28125-3.554687-15.746093-9.21875-20.953124 5.367187-4.9375 8.835937-11.898438 9.1875-19.664063h6.835937v101.46875c-12.410156 8.898437-20.519531 23.429687-20.519531 39.832031v11.597656c0 4.15625 3.371094 7.523438 7.523438 7.523438h82.945312c4.15625 0 7.523438-3.367188 7.523438-7.523438v-11.597656c0-16.402344-8.109375-30.933594-20.519531-39.832031v-32.390625c0-4.15625-3.367188-7.523438-7.519532-7.523438-4.15625 0-7.523437 3.367188-7.523437 7.523438v25.113281c-4.273438-1.21875-8.773438-1.886719-13.433594-1.886719-4.65625 0-9.160156.667969-13.433594 1.886719v-94.191406h26.867188v38.992187c0 4.152344 3.367187 7.519532 7.519531 7.519532 4.15625 0 7.523438-3.367188 7.523438-7.519532v-38.992187h53.140624v101.46875c-12.410156 8.894531-20.519531 23.429687-20.519531 39.832031v11.597656c0 4.15625 3.367188 7.523438 7.523438 7.523438h82.949219c4.152343 0 7.519531-3.367188 7.519531-7.523438v-11.597656c0-16.402344-8.109375-30.9375-20.519531-39.832031v-101.46875h6.839843c.347657 7.765625 3.820313 14.726563 9.183594 19.664063-5.660156 5.207031-9.214844 12.671874-9.214844 20.953124v20.957032c0 4.152344 3.363281 7.519531 7.519531 7.519531s7.523438-3.367187 7.523438-7.519531v-20.957032c0-7.40625 6.023438-13.433593 13.429688-13.433593 7.410156 0 13.433593 6.027343 13.433593 13.433593v20.957032c0 4.152344 3.367188 7.519531 7.523438 7.519531 4.152343 0 7.519531-3.367187 7.519531-7.519531v-20.957032c0-8.28125-3.554688-15.746093-9.214844-20.953124 5.660156-5.210938 9.214844-12.675782 9.214844-20.957032v-22.660156c0-4.152344-3.367188-7.519531-7.519531-7.519531-4.15625 0-7.523438 3.367187-7.523438 7.519531v22.660156c0 7.40625-6.023437 13.433594-13.433593 13.433594-7.40625 0-13.429688-6.027344-13.429688-13.433594v-124.570312c0-7.40625 6.023438-13.433594 13.429688-13.433594 7.410156 0 13.433593 6.027344 13.433593 13.433594v71.824218c.003907 4.15625 3.371094 7.523438 7.523438 7.523438zm-62.230469-195.203125c2.257812-1 4.703125-1.535156 7.222656-1.535156 9.878906 0 17.910156 8.035156 17.910156 17.914062 0 9.875-8.035156 17.910157-17.910156 17.910157-2.519531 0-4.964844-.53125-7.222656-1.53125zm-155.058594 32.757813c-2.257812 1-4.703125 1.53125-7.222656 1.53125-9.875 0-17.910156-8.035157-17.910156-17.910157s8.035156-17.910156 17.910156-17.910156c2.519531 0 4.964844.53125 7.222656 1.53125zm63.578125-113.625c0-7.691407 6.257813-13.949219 13.949219-13.949219 7.695312 0 13.949219 6.257812 13.949219 13.949219 0 7.691406-6.253907 13.949218-13.949219 13.949218-7.691406 0-13.949219-6.257812-13.949219-13.949218zm-41.011719 141.933593c-4.148437 0-7.523437-3.371093-7.523437-7.519531v-74.335938c0-4.148437 3.375-7.523437 7.523437-7.523437h109.925782c4.148437 0 7.523437 3.375 7.523437 7.523437v74.335938c0 4.148438-3.375 7.519531-7.523437 7.519531zm79.199219 15.042969v11.273438h-48.472656v-11.273438zm-79.285156 272.957031c18.722656 0 33.953125 15.234375 33.953125 33.953125v4.078125h-67.902344v-4.078125c-.003906-18.722656 15.230469-33.953125 33.949219-33.953125zm144.046875 33.953125v4.078125h-67.902344v-4.078125c0-18.722656 15.230469-33.953125 33.949219-33.953125 18.722656 0 33.953125 15.230469 33.953125 33.953125zm-47.382812-47.109375v-94.191406h26.863281v94.191406c-4.269531-1.21875-8.773438-1.886719-13.433594-1.886719-4.65625 0-9.160156.667969-13.429687 1.886719zm48.714843-109.234375h-180.660156v-124.25h180.660156zm0 0"/></svg>