<svg id="Layer_3" enable-background="new 0 0 64 64" height="512" viewBox="0 0 64 64" width="512" xmlns="http://www.w3.org/2000/svg"><path d="m49 2v8l-4-4-4 4v-8h-32v56c0-2.209 1.791-4 4-4h42v-52zm2 48h-30v-8h30zm0-12h-30v-24h30z" fill="#f4b2b0"/><g fill="#b3404a"><path d="m29.143 34.515c.181.302.508.485.857.485.036 0 .072-.002.109-.006.388-.043.716-.308.839-.678l3.773-11.316h13.279v-2h-14c-.431 0-.813.275-.948.684l-3.312 9.938-1.882-3.136c-.181-.302-.506-.486-.858-.486h-3v2h2.434z"/><path d="m42.063 25.649-.563 1.502-.563-1.503c-.147-.389-.52-.648-.937-.648h-2v2h1.307l1.125 3-1.125 3h-1.307v2h2c.417 0 .79-.259.937-.648l.563-1.503.563 1.503c.147.389.52.648.937.648h2v-2h-1.307l-1.125-3 1.125-3h1.307v-2h-2c-.417 0-.79.259-.937.649z"/><path d="m55.707 54.707c.191-.191.284-.447.284-.707h.009v-52c0-.552-.447-1-1-1h-46c-.553 0-1 .448-1 1v56c0 2.757 2.243 5 5 5h42c.404 0 .77-.243.924-.617.155-.374.069-.804-.217-1.09l-2.293-2.293c-.267-.268-.414-.622-.414-1s.147-.732.414-1zm-13.707-51.707h6v4.586l-2.293-2.293c-.391-.391-1.023-.391-1.414 0l-2.293 2.293zm-26 0v50h-3c-1.13 0-2.162.391-3 1.026v-51.026zm35.165 54h-36.165v2h36.165c.161.526.435 1.014.835 1.414l.586.586h-39.586c-1.654 0-3-1.346-3-3s1.346-3 3-3h39.586l-.586.586c-.4.4-.673.888-.835 1.414zm-33.165-4v-50h22v7c0 .404.243.769.617.924.374.154.804.069 1.09-.217l3.293-3.293 3.293 3.293c.191.191.447.293.707.293.129 0 .259-.025.383-.076.374-.155.617-.52.617-.924v-7h4v50z"/><path d="m51 13h-30c-.553 0-1 .448-1 1v24c0 .553.447 1 1 1h30c.553 0 1-.447 1-1v-24c0-.552-.447-1-1-1zm-1 24h-28v-22h28z"/><path d="m51 41h-30c-.553 0-1 .447-1 1v8c0 .553.447 1 1 1h30c.553 0 1-.447 1-1v-8c0-.553-.447-1-1-1zm-1 8h-28v-6h28z"/><path d="m24 45h24v2h-24z"/><path d="m25 26h2c1.654 0 3-1.346 3-3s-1.346-3-3-3h-1v-3h-2v8c0 .552.447 1 1 1zm1-4h1c.552 0 1 .449 1 1s-.448 1-1 1h-1z"/><path d="m33 17h11v2h-11z"/><path d="m46 17h2v2h-2z"/></g></svg>