<?xml version="1.0" standalone="no"?>
<!DOCTYPE svg PUBLIC "-//W3C//DTD SVG 20010904//EN"
 "http://www.w3.org/TR/2001/REC-SVG-20010904/DTD/svg10.dtd">
<svg version="1.0" xmlns="http://www.w3.org/2000/svg"
 width="522.000000pt" height="522.000000pt" viewBox="0 0 522.000000 522.000000"
 preserveAspectRatio="xMidYMid meet">
<metadata>
Created by potrace 1.14, written by Peter Selinger 2001-2017
</metadata>
<g transform="translate(0.000000,522.000000) scale(0.100000,-0.100000)"
fill="#000000" stroke="none">
<path d="M3899 5058 c-1 -14 -2 -23 -14 -128 -7 -64 -9 -90 -20 -225 -3 -38
-8 -83 -10 -100 -2 -16 -7 -73 -10 -125 -4 -52 -8 -117 -10 -145 -3 -45 -8
-136 -21 -375 -5 -107 -14 -518 -14 -702 -1 -87 -4 -159 -8 -162 -4 -2 -28 -7
-52 -11 -25 -3 -67 -10 -95 -15 -27 -5 -70 -12 -95 -15 -25 -3 -56 -8 -70 -10
-49 -8 -141 -18 -275 -30 -38 -3 -92 -8 -119 -10 -163 -15 -324 -24 -578 -30
-207 -5 -213 -4 -210 26 1 3 4 33 7 65 3 33 7 68 9 79 2 11 7 56 11 99 4 43 8
86 10 95 3 15 14 113 21 176 4 40 11 103 24 205 5 47 12 106 15 133 13 122 15
145 20 187 3 25 10 79 15 120 5 41 12 102 15 135 3 33 8 74 10 90 2 17 7 57
10 90 4 32 8 67 10 77 2 9 6 48 10 85 3 37 8 79 10 93 2 14 6 54 10 90 4 36 8
77 11 92 2 15 0 30 -6 33 -12 7 -108 18 -169 19 -44 1 -45 1 -46 -34 -2 -32
-10 -103 -20 -170 -2 -14 -6 -54 -9 -90 -3 -36 -8 -74 -10 -85 -3 -17 -10 -82
-21 -185 -3 -30 -14 -128 -21 -190 -3 -25 -8 -58 -10 -75 -3 -16 -7 -52 -10
-80 -2 -27 -6 -63 -8 -80 -8 -64 -18 -160 -21 -194 -2 -20 -6 -52 -9 -71 -3
-19 -8 -64 -11 -100 -3 -36 -10 -94 -15 -130 -5 -36 -12 -89 -15 -119 -6 -47
-17 -69 -91 -170 -93 -129 -100 -139 -164 -224 -25 -33 -52 -69 -60 -81 -87
-124 -545 -705 -584 -741 -6 -5 -33 -37 -61 -70 -27 -33 -54 -65 -60 -71 -5
-6 -38 -42 -72 -80 -73 -82 -132 -144 -138 -144 -3 0 -3 53 0 117 4 109 8 292
20 878 5 219 14 1281 15 1804 1 162 -3 277 -8 280 -6 3 -55 5 -111 3 l-101 -3
0 -287 c-2 -1139 -19 -2267 -45 -2922 l-4 -105 -44 -40 c-24 -22 -75 -67 -113
-100 -37 -33 -94 -87 -127 -119 -57 -58 -177 -201 -177 -211 0 -2 -15 -28 -33
-57 -35 -55 -82 -165 -92 -215 -16 -75 -16 -181 -1 -252 36 -172 182 -384 302
-440 149 -71 328 16 381 184 12 39 24 84 27 100 3 17 9 57 15 90 6 33 13 85
16 115 3 30 8 66 10 80 2 14 6 55 9 93 3 37 8 95 11 130 3 34 8 94 10 132 10
158 17 284 20 343 1 34 6 66 9 70 55 54 254 262 296 308 64 71 77 86 190 219
47 55 87 102 90 105 3 3 23 28 45 55 39 50 46 58 75 92 8 9 43 53 78 98 34 44
74 94 87 110 13 17 64 84 114 150 50 66 98 129 107 140 9 11 32 43 52 72 40
56 55 66 48 31 -3 -13 -8 -50 -11 -83 -3 -33 -7 -73 -9 -90 -2 -16 -7 -57 -10
-89 -4 -33 -9 -73 -11 -90 -3 -17 -7 -56 -10 -86 -6 -58 -11 -105 -20 -180 -3
-25 -7 -65 -10 -90 -3 -25 -8 -61 -11 -80 -2 -19 -7 -58 -9 -87 -3 -28 -7 -71
-10 -95 -3 -24 -8 -63 -10 -88 -5 -51 -14 -124 -30 -243 -7 -52 -7 -52 60 -62
99 -15 155 -16 156 -3 0 7 2 22 4 33 2 11 7 49 10 85 5 61 12 121 20 180 4 26
11 89 20 175 2 28 7 59 9 70 2 11 7 55 10 97 4 42 9 85 10 95 2 10 7 47 10 83
4 36 9 76 12 90 2 14 6 50 9 80 3 30 7 69 9 85 2 17 7 65 11 108 4 42 11 79
15 82 4 2 38 -5 76 -16 38 -11 79 -22 91 -24 49 -11 360 -116 428 -145 11 -5
54 -23 95 -40 192 -81 438 -221 564 -322 39 -31 176 -166 206 -203 69 -84 138
-217 145 -277 2 -24 7 -72 11 -108 3 -36 8 -76 9 -90 2 -14 4 -31 4 -38 1 -11
15 -12 64 -8 34 4 71 8 82 11 11 2 33 4 48 4 28 1 29 2 21 44 -4 23 -8 85 -9
137 0 53 -4 101 -8 107 -8 13 -13 52 -22 183 -3 41 -7 95 -10 120 -3 25 -7 88
-11 140 -3 52 -7 122 -9 155 -4 65 -17 416 -19 504 l-1 54 147 38 c137 36 374
108 426 130 12 5 32 13 45 19 12 5 51 21 87 35 68 28 291 136 300 146 3 3 30
20 61 37 84 48 85 49 36 118 -23 32 -45 61 -49 62 -5 2 -8 9 -8 15 0 7 -4 18
-9 26 -7 10 -24 4 -84 -33 -139 -84 -372 -192 -518 -239 -136 -45 -218 -70
-309 -92 -55 -15 -108 -29 -117 -32 -14 -5 -15 32 -9 378 4 211 9 409 11 439
2 30 6 111 10 180 6 130 9 178 20 320 4 47 8 105 10 130 6 85 15 185 21 230 3
25 7 68 9 95 2 28 7 66 10 86 7 42 5 45 -49 53 -96 15 -166 17 -167 4z m-91
-2286 c4 -215 22 -554 29 -566 13 -20 -19 3 -69 49 -189 179 -431 326 -775
470 -51 22 -91 41 -89 43 3 2 38 5 78 7 41 2 103 7 138 10 36 4 85 8 110 10
25 2 65 6 90 9 25 3 66 8 92 11 26 3 64 7 85 10 21 3 54 8 73 11 19 2 49 7 65
10 17 3 43 7 58 8 15 2 29 5 32 7 2 2 21 5 42 6 l38 2 3 -97z m-3173 -1581
c-1 -9 -6 -65 -10 -126 -3 -60 -8 -126 -10 -145 -2 -19 -6 -69 -10 -110 -6
-75 -8 -87 -20 -190 -4 -30 -8 -64 -9 -75 -20 -178 -63 -263 -119 -234 -34 18
-72 65 -119 145 -66 114 -81 200 -53 306 15 59 73 178 100 204 8 9 15 18 15
22 0 10 59 75 147 164 73 74 97 84 88 39z"/>
</g>
</svg>
